/* XPM */
static const char *C0_xpm[] = {
/* width height num_colors chars_per_pixel */
"    33    35        8            1",
/* colors */
"` c #000000",
". c #8d8d8d",
"# c #4d4e4d",
"a c #d8d7d8",
"b c #333233",
"c c #b2b1b2",
"d c #6a6c6a",
"e c #ffffff",
/* pixels */
"eeeeeec.bb````````````bb.ceeeeeee",
"eeee.b````````````````````b.eeeee",
"eeab`````````````````````````aeee",
"ea````````````````````````````aee",
"e#````````````````````````````bee",
"c``````````````````````````````de",
"d```````bbbb########bbb````````ba",
"b``````#d.cccaaaaaaaacccd```````c",
"``````#.aeeeeeeeeeeeeeeeec``````.",
"``````deeeeeeeeeeeeeeeeeee``````d",
"``````deeeeeeeeeeeeeeeeeee``````d",
"``````deeeeeeeeeeeeeeeeeee``````d",
"``````deeeeeeeeeeeeeeeeeee``````d",
"``````deeeeeeeeeeeeeeeeeee``````d",
"``````deeeeeeeeeeeeeeeeeee``````d",
"``````deeeeeeeeeeeeeeeeeee``````d",
"``````deeeeeeeeeeeeeeeeeee``````d",
"``````deeeeeeeeeeeeeeeeeee``````d",
"``````deeeeeeeeeeeeeeeeeee``````d",
"``````deeeeeeeeeeeeeeeeeee``````d",
"``````deeeeeeeeeeeeeeeeeee``````d",
"``````deeeeeeeeeeeeeeeeeee``````d",
"``````deeeeeeeeeeeeeeeeeee``````d",
"``````deeeeeeeeeeeeeeeeeee``````d",
"``````deeeeeeeeeeeeeeeeeee``````d",
"``````#eeeeeeeeeeeeeeeeeea``````d",
"```````.eeeeeeeeeeeeeeeeab``````d",
"#````````b............db```````b.",
".``````````````````````````````#c",
"e`````````````````````````````bda",
"e.````````````````````````````#.e",
"ee.``````````````````````````#dee",
"eeecb``````````````````````bddaee",
"eeeee.#bb`````````````bbb#ddceeee",
"eeeeeeeac..dddddddddddd..caeeeeee"
};
