/* XPM */
static const char *C1_xpm[] = {
/* width height num_colors chars_per_pixel */
"    33    35        8            1",
/* colors */
"` c #ffffff",
". c #000000",
"# c #7b7d7b",
"a c #313031",
"b c #b4b2b4",
"c c #626562",
"d c #000000",
"e c #000000",
/* pixels */
"````````````````````````.....#```",
"````````````````````````.....ab``",
"````````````````````````.....ab``",
"````````````````````````.....ab``",
"````````````````````````.....ab``",
"````````````````````````.....ab``",
"````````````````````````.....ab``",
"````````````````````````.....ab``",
"````````````````````````.....ab``",
"````````````````````````.....ab``",
"````````````````````````.....ab``",
"````````````````````````.....ab``",
"````````````````````````.....ab``",
"````````````````````````.....ab``",
"````````````````````````.....ab``",
"````````````````````````.....ab``",
"````````````````````````.....ab``",
"````````````````````````.....ab``",
"````````````````````````.....ab``",
"````````````````````````.....ab``",
"````````````````````````.....ab``",
"````````````````````````.....ab``",
"````````````````````````.....ab``",
"````````````````````````.....ab``",
"````````````````````````.....ab``",
"````````````````````````.....ab``",
"````````````````````````.....ab``",
"````````````````````````.....ab``",
"````````````````````````.....ab``",
"````````````````````````.....ab``",
"````````````````````````.....ab``",
"````````````````````````.....ab``",
"````````````````````````.....ab``",
"````````````````````````.....ab``",
"`````````````````````````cccccb``"
};
