/* XPM */
static const char *C2_xpm[] = {
/* width height num_colors chars_per_pixel */
"    33    35        8            1",
/* colors */
"` c #000000",
". c #8f908f",
"# c #4d4c4d",
"a c #dbd9db",
"b c #6e6f6e",
"c c #333233",
"d c #b3b2b3",
"e c #ffffff",
/* pixels */
"eeeeeeeeeeeeee#````````cbdeeeeeee",
"eeeeeeeeeeeeee#```````````cdeeeee",
"eeeeeeeeeeeeee#`````````````#eeee",
"eeeeeeeeeeeeee#``````````````beee",
"eeeeeeeeeeeeee#```````````````dee",
"eeeeeeeeeeeeee#```````````````cee",
"eeeeeeeeeeeeeeab#######c```````de",
"eeeeeeeeeeeeeeeaaaaaaaad.``````be",
"eeeeeeeeeeeeeeeeeeeeeeeeed`````#e",
"eeeeeeeeeeeeeeeeeeeeeeeeed`````#a",
"eeeeeeeeeeeeeeeeeeeeeeeeed`````#a",
"eeeeeeeeeeeeeeeeeeeeeeeeed`````#a",
"eeeeeeeeeeeeeeeeeeeeeeeeeb`````ba",
"eeeeeeeeeeeeeeeeeeeeeeed#``````be",
"eeeeeedbccc```````````````````cbe",
"eeeeb`````````````````````````#.e",
"eed```````````````````````````bde",
"ed```````````````````````````#bee",
"e```````````````````````````#baee",
".`````````````````````````cbbaeee",
"#``````cccccccccccccccc##b.deeeee",
"``````#b.dddddddddddddddaeeeeeeee",
"`````cbeeeeeeeeeeeeeeeeeeeeeeeeee",
"`````cdeeeeeeeeeeeeeeeeeeeeeeeeee",
"`````cdeeeeeeeeeeeeeeeeeeeeeeeeee",
"`````cdeeeeeeeeeeeeeeeeeeeeeeeeee",
"`````cdeeeeeeeeeeeeeeeeeeeeeeeeee",
"`````c#bbbbbbbbbbbbbbbbbbbbbbbbee",
"```````````````````````````````de",
"```````````````````````````````be",
"```````````````````````````````be",
"```````````````````````````````be",
"```````````````````````````````be",
"```````````````````````````````be",
"ebbbbbbbbbbbbbbbbbbbbbbbbbbbbbbbe"
};
