/* XPM */
static const char *C3_xpm[] = {
/* width height num_colors chars_per_pixel */
"    33    35        8            1",
/* colors */
"` c #000000",
". c #909190",
"# c #4b494b",
"a c #d9d8d9",
"b c #6e6f6e",
"c c #2f2e2f",
"d c #b9b9b9",
"e c #ffffff",
/* pixels */
"eeeeeeeeeeeeeee````````c#b.eeeeee",
"eeeeeeeeeeeeeee`````````````beeee",
"eeeeeeeeeeeeeee``````````````ceee",
"eeeeeeeeeeeeeee```````````````#ee",
"eeeeeeeeeeeeeee````````````````.e",
"eeeeeeeeeeeeeee````````````````ce",
"eeeeeeeeeeeeeeebccccccccc``````cd",
"eeeeeeeeeeeeeeeedddddddddb``````.",
"eeeeeeeeeeeeeeeeeeeeeeeeeeb`````.",
"eeeeeeeeeeeeeeeeeeeeeeeeeeb`````b",
"eeeeeeeeeeeeeeeeeeeeeeeeeeb`````b",
"eeeeeeeeeeeeeeeeeeeeeeeeeeb`````b",
"eeeeeeeeeeeeeeeeeeeeeeeeeec````cb",
"addddddddddddddddddddddbbc`````c.",
"#``````````````````````````````c.",
"#``````````````````````````````#d",
"#`````````````````````````````#be",
"#`````````````````````````````cae",
"#``````````````````````````````be",
"#``````````````````````````````ca",
"e.bbbbbbbbbbbbbbbbbbbbb##c`````c.",
"eeeeeeeeeeeeeeeeeeeeeeeeadc`````.",
"eeeeeeeeeeeeeeeeeeeeeeeeeeb`````b",
"eeeeeeeeeeeeeeeeeeeeeeeeeeb`````b",
"eeeeeeeeeeeeeeeeeeeeeeeeeeb`````b",
"eeeeeeeeeeeeeeeeeeeeeeeeee#`````b",
"eeeeeeeeeeeeeeeeeeeeeeeee.`````cb",
".bbbbbbbbbbbbbbbbbbbbbbbc``````c.",
"#``````````````````````````````#d",
"#`````````````````````````````cba",
"#`````````````````````````````#.e",
"#````````````````````````````#bae",
"#``````````````````````````c#baee",
"#```````````````````````cc#b.eeee",
"e.bbbbbbbbbbbbbbbbbbbbbb..deeeeee"
};
