/* XPM */
static const char *C4_xpm[] = {
/* width height num_colors chars_per_pixel */
"    33    35        8            1",
/* colors */
"` c #000000",
". c #8c8e8c",
"# c #444244",
"a c #333133",
"b c #6c6e6c",
"c c #ffffff",
"d c #b4b2b4",
"e c #1c1a1c",
/* pixels */
"`````#cccccccccccccccccccc#`````c",
"`````e.ccccccccccccccccccc#`````b",
"`````e.ccccccccccccccccccc#`````b",
"`````e.ccccccccccccccccccc#`````b",
"`````e.ccccccccccccccccccc#`````b",
"`````e.ccccccccccccccccccc#`````b",
"`````e.ccccccccccccccccccc#`````b",
"`````e.ccccccccccccccccccc#`````b",
"`````e.ccccccccccccccccccc#`````b",
"`````e.ccccccccccccccccccc#`````b",
"`````e.ccccccccccccccccccc#`````b",
"`````e.ccccccccccccccccccc#`````b",
"`````e.ccccccccccccccccccc#`````b",
"`````e.ccccccccccccccccccc#`````b",
"`````e.ccccccccccccccccccc#`````b",
"`````e.ccccccccccccccccccc#`````b",
"`````e.ccccccccccccccccccc#`````b",
"`````e.ccccccccccccccccccc#`````b",
"``````#...................e`````b",
"````````````````````````````````b",
"````````````````````````````````b",
"````````````````````````````````b",
"````````````````````````````````b",
"````````````````````````````````b",
"````````````````````````````````b",
".aaaaaaaaaaaaaaaaaaaaaaaaa``````b",
"cddddddddddddddddddddddddda`````b",
"cccccccccccccccccccccccccc#`````b",
"cccccccccccccccccccccccccc#`````b",
"cccccccccccccccccccccccccc#`````b",
"cccccccccccccccccccccccccc#`````b",
"cccccccccccccccccccccccccc#`````b",
"cccccccccccccccccccccccccc#`````b",
"cccccccccccccccccccccccccc#`````b",
"ccccccccccccccccccccccccccc.bbbbb"
};
