/* XPM */
static const char *C5_xpm[] = {
/* width height num_colors chars_per_pixel */
"    33    35        8            1",
/* colors */
"` c #000000",
". c #8c8e8c",
"# c #4c4d4c",
"a c #dbd9db",
"b c #373737",
"c c #bababa",
"d c #6f6f6f",
"e c #ffffff",
/* pixels */
"``````````````````ceeeeeeeeeeeeee",
"``````````````````#aeeeeeeeeeeeee",
"``````````````````#aeeeeeeeeeeeee",
"``````````````````#aeeeeeeeeeeeee",
"``````````````````#aeeeeeeeeeeeee",
"``````````````````#aeeeeeeeeeeeee",
"`````b############daeeeeeeeeeeeee",
"`````b.aaaaaaaaaaaaeeeeeeeeeeeeee",
"`````bceeeeeeeeeeeeeeeeeeeeeeeeee",
"`````bceeeeeeeeeeeeeeeeeeeeeeeeee",
"`````b.ccccccccccccccceeeeeeeeeee",
"````````````````````````bdaeeeeee",
"```````````````````````````#aeeee",
"`````````````````````````````ceee",
"``````````````````````````````cee",
"```````````````````````````````ae",
"```````````````````````````````#e",
"c#######################b``````bc",
"eaaaaaaaaaaaaaaaaaaaaaaac.``````.",
"eeeeeeeeeeeeeeeeeeeeeeeeeed`````d",
"eeeeeeeeeeeeeeeeeeeeeeeeeed`````d",
"eeeeeeeeeeeeeeeeeeeeeeeeeed`````d",
"eeeeeeeeeeeeeeeeeeeeeeeeeed`````d",
"eeeeeeeeeeeeeeeeeeeeeeeeeed`````d",
"eeeeeeeeeeeeeeeeeeeeeeeeeed`````d",
"eeeeeeeeeeeeeeeeeeeeeeeeeed`````d",
"eeeeeeeeeeeeeeeeeeeeeeeeed``````d",
"bbbbbbbbbbbbbbbbbbbbbbbb```````bd",
"```````````````````````````````#.",
"```````````````````````````````dc",
"``````````````````````````````#de",
"`````````````````````````````#dae",
"```````````````````````````bddaee",
"#````````````````````bbb##d.ceeee",
"e......................ccaaeeeeee"
};
