/* XPM */
static const char *C6_xpm[] = {
/* width height num_colors chars_per_pixel */
"    33    35        8            1",
/* colors */
"` c #000000",
". c #8e8f8e",
"# c #4c4d4c",
"a c #d6d5d6",
"b c #323132",
"c c #b3b2b3",
"d c #6f706f",
"e c #ffffff",
/* pixels */
"eeeeeecdbb```````deeeeeeeeeeeeeee",
"eeeed````````````bceeeeeeeeeeeeee",
"eea``````````````bceeeeeeeeeeeeee",
"ea```````````````bceeeeeeeeeeeeee",
"eb```````````````bceeeeeeeeeeeeee",
"c````````````````bceeeeeeeeeeeeee",
"#```````bbbbbbbbb#ceeeeeeeeeeeeee",
"b`````#d.cccccccccaeeeeeeeeeeeeee",
"`````bdaeeeeeeeeeeeeeeeeeeeeeeeee",
"`````bceeeeeeeeeeeeeeeeeeeeeeeeee",
"`````bceeeeeeeeeeeeeeeeeeeeeeeeee",
"````````````````````````bdaeeeeee",
"```````````````````````````baeeee",
"`````````````````````````````.eee",
"``````````````````````````````.ee",
"```````````````````````````````ce",
"```````````````````````````````be",
"`````b################bb```````bc",
"`````bcaaaaaaaaaaaaaaaacc#``````.",
"`````bceeeeeeeeeeeeeeeeeee#`````d",
"`````bceeeeeeeeeeeeeeeeeeec`````d",
"`````bceeeeeeeeeeeeeeeeeeec`````d",
"`````bceeeeeeeeeeeeeeeeeeec`````d",
"`````bceeeeeeeeeeeeeeeeeeec`````d",
"`````bceeeeeeeeeeeeeeeeeeec`````d",
"`````bceeeeeeeeeeeeeeeeeeed`````d",
"b`````baeeeeeeeeeeeeeeeee.``````d",
"d```````bdddddddddddddd#b``````bd",
"a``````````````````````````````#.",
"eb`````````````````````````````da",
"ea````````````````````````````#de",
"eec``````````````````````````#dae",
"eeecb``````````````````````b#daee",
"eeeeadbb````````````````bb#d.aeee",
"eeeeeeac.dddddddddddddddd.caeeeee"
};
