/* XPM */
static const char *C7_xpm[] = {
/* width height num_colors chars_per_pixel */
"    33    35        8            1",
/* colors */
"` c #000000",
". c #8d8e8d",
"# c #4c4e4c",
"a c #dad9da",
"b c #b2b2b2",
"c c #6a6b6a",
"d c #302f30",
"e c #ffffff",
/* pixels */
"`````````````````````````````dbee",
"```````````````````````````````be",
"```````````````````````````````de",
"```````````````````````````````db",
"```````````````````````````````#b",
"```````````````````````````````ca",
"b######################d``````#ce",
"eaaaaaaaaaaaaaaaaaaaaaa``````dcae",
"eeeeeeeeeeeeeeeeeeeeeec``````#.ee",
"eeeeeeeeeeeeeeeeeeeeeb``````dceee",
"eeeeeeeeeeeeeeeeeeeeed``````cbeee",
"eeeeeeeeeeeeeeeeeeee.``````#.eeee",
"eeeeeeeeeeeeeeeeeeea``````dcaeeee",
"eeeeeeeeeeeeeeeeeee#``````cbeeeee",
"eeeeeeeeeeeeeeeeeeb``````#ceeeeee",
"eeeeeeeeeeeeeeeeee``````dcbeeeeee",
"eeeeeeeeeeeeeeeeec``````#.eeeeeee",
"eeeeeeeeeeeeeeeeb``````dceeeeeeee",
"eeeeeeeeeeeeeeeed``````cbeeeeeeee",
"eeeeeeeeeeeeeee.``````#ceeeeeeeee",
"eeeeeeeeeeeeeea``````dcaeeeeeeeee",
"eeeeeeeeeeeeee#``````cbeeeeeeeeee",
"eeeeeeeeeeeeeb``````dceeeeeeeeeee",
"eeeeeeeeeeeee``````dcbeeeeeeeeeee",
"eeeeeeeeeeeec``````#.eeeeeeeeeeee",
"eeeeeeeeeeeb``````dcaeeeeeeeeeeee",
"eeeeeeeeeeed``````cbeeeeeeeeeeeee",
"eeeeeeeeee.``````#ceeeeeeeeeeeeee",
"eeeeeeeeea``````dcaeeeeeeeeeeeeee",
"eeeeeeeee#``````c.eeeeeeeeeeeeeee",
"eeeeeeeeb``````dceeeeeeeeeeeeeeee",
"eeeeeeeed`````dcbeeeeeeeeeeeeeeee",
"eeeeeeec``````#.eeeeeeeeeeeeeeeee",
"eeeeeea``````dcaeeeeeeeeeeeeeeeee",
"eeeeeeeaccccccbeeeeeeeeeeeeeeeeee"
};
