/* XPM */
static const char *C8_xpm[] = {
/* width height num_colors chars_per_pixel */
"    33    35        8            1",
/* colors */
"` c #000000",
". c #8e8f8e",
"# c #4c4c4c",
"a c #d6d5d6",
"b c #6e706e",
"c c #313231",
"d c #afadaf",
"e c #ffffff",
/* pixels */
"eeeeea.bc``````````````cb.aeeeeee",
"eeea#``````````````````````#aeeee",
"ee.``````````````````````````.eee",
"ed````````````````````````````.ee",
"e``````````````````````````````ae",
"d``````````````````````````````#e",
"#```````ccc##########ccc```````ca",
"c`````cbbdddaaaaaaaaaaddd#``````.",
"``````bdeeeeeeeeeeeeeeeeeec`````b",
"`````c.eeeeeeeeeeeeeeeeeeec`````b",
"`````c.eeeeeeeeeeeeeeeeeeec`````b",
"c````c.eeeeeeeeeeeeeeeeeeec`````b",
"#`````beeeeeeeeeeeeeeeeee.`````c.",
"b``````ccbbbbbbbbbbbbb#c```````c.",
"a``````````````````````````````#d",
"eb````````````````````````````cbe",
"ee#``````````````````````````cbde",
"ea````````````````````````````.ee",
"e#````````````````````````````cee",
"a``````````````````````````````be",
".``````c#bbbbbbbbbbbbbb##``````ca",
"b`````bbdaeeeeeeeeeeeeeeaa`````cd",
"#````cbeeeeeeeeeeeeeeeeeeec`````.",
"#````c.eeeeeeeeeeeeeeeeeeec`````b",
"#````c.eeeeeeeeeeeeeeeeeeec`````b",
"#`````.eeeeeeeeeeeeeeeeeeec`````b",
"#``````deeeeeeeeeeeeeeeeeb``````b",
"b````````#bbbbbbbbbbbbbc```````cb",
"a``````````````````````````````#d",
"e#`````````````````````````````ba",
"eec```````````````````````````#.e",
"eeec`````````````````````````#bae",
"eeee#``````````````````````cbbaee",
"eeeeea#cc``````````````cc#bbdeeee",
"eeeeeeead.bbbbbbbbbbbbbb.daeeeeee"
};
