/* XPM */
static const char *C9_xpm[] = {
/* width height num_colors chars_per_pixel */
"    33    35        8            1",
/* colors */
"` c #000000",
". c #8b8c8b",
"# c #4c4c4c",
"a c #d7d7d7",
"b c #323232",
"c c #b0b0b0",
"d c #6d6f6d",
"e c #ffffff",
/* pixels */
"eeeeee.#b``````````````bdceeeeeee",
"eeeed``````````````````````.eeeee",
"eea`````````````````````````baeee",
"ea````````````````````````````aee",
"eb````````````````````````````bee",
"c``````````````````````````````de",
"#```````bbb##########bb````````ba",
"``````bddcccaaaaaaaaaaccd```````c",
"``````dceeeeeeeeeeeeeeeeea``````.",
"`````b.eeeeeeeeeeeeeeeeeeeb`````d",
"`````b.eeeeeeeeeeeeeeeeeeeb`````d",
"`````b.eeeeeeeeeeeeeeeeeeeb`````d",
"`````b.eeeeeeeeeeeeeeeeeeeb`````d",
"`````b.eeeeeeeeeeeeeeeeeeeb`````d",
"``````.eeeeeeeeeeeeeeeeeeeb`````d",
"``````baeeeeeeeeeeeeeeeeeeb`````d",
"#```````bd................b`````d",
"c```````````````````````````````d",
"e```````````````````````````````d",
"ec``````````````````````````````d",
"ee.`````````````````````````````d",
"eeecb```````````````````````````d",
"eeeee.bbb```````````````````````d",
"eeeeeeecc.ddddddddddddddddb`````d",
"eeeeeeeeeeeeeeeeeeeeeeeeee#`````d",
"eeeeeeeeeeeeeeeeeeeeeeeeee``````d",
"eeeeeeeeeeeeeeeeeeeeeeeeab``````d",
"eeeeeeeeeeeeeeaccccc..db```````bd",
"eeeeeeeeeeeeee.````````````````#.",
"eeeeeeeeeeeeee.````````````````da",
"eeeeeeeeeeeeee.```````````````#de",
"eeeeeeeeeeeeee.``````````````#dae",
"eeeeeeeeeeeeee.````````````bddaee",
"eeeeeeeeeeeeee.```````bbb#ddceeee",
"eeeeeeeeeeeeeeecdddddd..ccaeeeeee"
};
