/* XPM */
static const char *Call_xpm[] = {
/* width height num_colors chars_per_pixel */
"    36    74        8            1",
/* colors */
"` c #161516",
". c #919293",
"# c #57595a",
"a c #d5d5d5",
"b c #363738",
"c c #bab9bb",
"d c #ffffff",
"e c #767779",
/* pixels */
"dddddddddddddddddddddddddddddddddddd",
"dddddddddddddddddddddddddddddddddddd",
"dddddddddddddddddddddddddddddddddddd",
"dddddddddddddddddddddddddddddddddddd",
"dddddddddddddddddddddddddddddddddddd",
"dddddddddddddddddddddddddddddddddddd",
"dddddddddddddddddddddddddddddddddddd",
"dddddddddddddddddddddddddddddddddddd",
"dddddddddddddddddddddddddddddddddddd",
"dddddddddddddddddddddddddddddddddddd",
"dddddddddddddddddddddddddddddddddddd",
"dddddddddddddddddddddddddddddddddddd",
"dddddddddddddddddddddddddddddddddddd",
"dddddddddddddddddddddddddddddddddddd",
"dddddddddddddddddddddddddddddddddddd",
"dddddddddddddddddddddddddddddddddddd",
"dddddddddddddddddddddddddddddddddddd",
"dddddddddddddddddddddddddddddddddddd",
"dddddddddddddddddddddddddddddddddddd",
"dddddddddddddddddddddddddddddddddddd",
"dddddddddddddddddddddddddddddddddddd",
"dddddddddddddddddddddddddddddddddddd",
"dddddddddddddddddddddddddddddddddddd",
"dddddddddddddddddddddddddddddddddddd",
"dddddddddddddddddddddddddddddddddddd",
"dddddddddddddddddddddddddddddddddddd",
"dddddddddddddddddddddddddddddddddddd",
"dddddddddddddddddddddddddddddddddddd",
"dddddddddddddddddddddddddddddddddddd",
"dddddddddddddddddddddddddddddddddddd",
"dddddddddddddddddddddddddddddddddddd",
"dddddddddddddddddddddddddddddddddddd",
"dddddddddddddddddddddddddddddddddddd",
"dddddddddddddddddddddddddddddddddddd",
"dddddddddddddddddddddddddddddddddddd",
"dddddddddddddddddddddddddddddddddddd",
"dddddddddddddddddddddddddddddddddddd",
"dddddddddddddddddddddddddddddddddddd",
"dddddddddddddddddddddddddddddddddddd",
"dddddddddddddddddddddddddddddddddddd",
"dddddddddddddddddddddddddddddddddddd",
"dddddddddddddddddddddddddddddddddddd",
"dddddddddddddddddddddddddddddddddddd",
"dddddddddddddddddddddddddddddddddddd",
"dddddddddddddddddddddddddddddddddddd",
"dddddddddddddddddddddddddddddddddddd",
"dddddddddddddddddddddddddddddddddddd",
"dddddddddddddddddddddddddddddddddddd",
"dddddddddddddddddddddddddddddddddddd",
"dddddddddddddddddddddddddddddddddddd",
"dddddddddddddddddddddddddddddddddddd",
"dddddddddddddddddddddddddddddddddddd",
"dddddddddddddddddddddddddddddddddddd",
"dddddddddddddddddddddddddddddddddddd",
"dddddddddddddddddddddddddddddddddddd",
"dddddddddddddddddddddddddddddddddddd",
"dddddddddddddddddddddddddddddddddddd",
"dddddddddddddddddddddddddddddddddddd",
"dddddddddddddddddddddddddddd.#..dddd",
"dddddddddddddddddddddddddddde``baddd",
"dddddddddddddddddddddddddd.b```#addd",
"ddddddddddddddddd.ecdddae`````#adddd",
"dddddddddddddddda````b#```b#e#``#ddd",
"ddddddddddddddddcb``````b#eeb````edd",
"ddddddddddddddddddc.#bbe.#```````bad",
"dddddddddddddddddddddda.``````````.d",
"ddddddddddddddddddddddc``````bb`b#.d",
"ddddddddddddddddddddddb````b#cae.ddd",
"dddddddddddddddddddddd````ecdddddddd",
"dddddddddddddddddddddd````addddddddd",
"dddddddddddddddddddddd```bcddddddddd",
"ddddddddddddddddddddddeb.adddddddddd",
"dddddddddddddddddddddddcdddddddddddd",
"dddddddddddddddddddddddddddddddddddd"
};
