/* XPM */
static const char *Ccolon_xpm[] = {
/* width height num_colors chars_per_pixel */
"     8    35        8            1",
/* colors */
"` c #000000",
". c #939393",
"# c #4a4a4a",
"a c #d2d3d2",
"b c #2f2d2f",
"c c #b0afb0",
"d c #6f6f6f",
"e c #ffffff",
/* pixels */
"eeeeeeee",
"eeeeeeee",
"eeeeeeee",
"eeeeeeee",
"eeeeeeee",
"eeeeeeee",
"eeeeeeee",
"eeeeeeee",
"eeeeeeee",
"eeeeeeee",
"eeeeeeee",
"eeeeeeee",
"eeeeeeee",
"eeeeeeee",
"eeeeeeee",
"eeeeeeee",
"eeeeeeee",
"eeeeeeee",
"eeeeeeee",
"e.b`bdee",
"c`````#e",
"#``````c",
"d``````d",
"a`````#d",
"ee#bbdda",
"eeeaccee",
"eeeeeeee",
"eeeeeeee",
"ead#daee",
"a`````.e",
"#``````a",
"#``````d",
"c`````bd",
"e.bbb#dc",
"eea...ae"
};
