/* XPM */
static const char *Cdot_xpm[] = {
/* width height num_colors chars_per_pixel */
"     8    35        8            1",
/* colors */
"` c #000000",
". c #9e9f9e",
"# c #444244",
"a c #cccecc",
"b c #2c2b2c",
"c c #6e6d6e",
"d c #b7b7b7",
"e c #ffffff",
/* pixels */
"eeeeeeee",
"eeeeeeee",
"eeeeeeee",
"eeeeeeee",
"eeeeeeee",
"eeeeeeee",
"eeeeeeee",
"eeeeeeee",
"eeeeeeee",
"eeeeeeee",
"eeeeeeee",
"eeeeeeee",
"eeeeeeee",
"eeeeeeee",
"eeeeeeee",
"eeeeeeee",
"eeeeeeee",
"eeeeeeee",
"eeeeeeee",
"eeeeeeee",
"eeeeeeee",
"eeeeeeee",
"eeeeeeee",
"eeeeeeee",
"eeeeeeee",
"eeeeeeee",
"eeeeeeee",
"eeeeeeee",
"ecb`bdee",
"c`````.e",
"``````ba",
"b`````b.",
"d`````c.",
"ed#b#cce",
"eeeddaee"
};
