/* XPM */
static const char *D0_xpm[] = {
/* width height num_colors chars_per_pixel */
"    11    11        8            1",
/* colors */
"` c #000000",
". c #949694",
"# c #4a484a",
"a c #cccecc",
"b c #343434",
"c c #7c7e7c",
"d c #bcbdbc",
"e c #ffffff",
/* pixels */
"e.```````ba",
"d```b##```b",
"c`#eeeeeeb`",
"c`ceeeeeeb`",
"c`ceeeeeeb`",
"c`ceeeeeeb`",
"c`ceeeeeeb`",
"c`ceeeeeeb`",
"c`bddddd.``",
"d`````````#",
"ed#`````bce"
};
