/* XPM */
static const char *D1_xpm[] = {
/* width height num_colors chars_per_pixel */
"    11    11        8            1",
/* colors */
"` c #ffffff",
". c #000000",
"# c #7b7d7b",
"a c #000000",
"b c #000000",
"c c #000000",
"d c #000000",
"e c #000000",
/* pixels */
"````````.#`",
"````````.#`",
"````````.#`",
"````````.#`",
"````````.#`",
"````````.#`",
"````````.#`",
"````````.#`",
"````````.#`",
"````````.#`",
"````````.#`"
};
