/* XPM */
static const char *D3_xpm[] = {
/* width height num_colors chars_per_pixel */
"    11    11        8            1",
/* colors */
"` c #000000",
". c #b9b7b9",
"# c #444244",
"a c #ffffff",
"b c #373737",
"c c #7a7c7a",
"d c #d4d2d4",
"e c #575657",
/* pixels */
"aaaaa#```ea",
"aaaaa#````e",
"aaaaad...``",
"aaaaaaaaa``",
"ccccccccc`b",
"``````````c",
"########b`b",
"aaaaaaaaa``",
"aaaaaaaaa``",
"########``e",
"`````````bd"
};
