/* XPM */
static const char *D4_xpm[] = {
/* width height num_colors chars_per_pixel */
"    11    11        8            1",
/* colors */
"` c #000000",
". c #ffffff",
"# c #bdbabd",
"a c #000000",
"b c #000000",
"c c #000000",
"d c #000000",
"e c #000000",
/* pixels */
"``.......``",
"``.......``",
"``.......``",
"``.......``",
"``.......``",
"``.......``",
"```````````",
"```````````",
"#########``",
".........``",
".........``"
};
