/* XPM */
static const char *D5_xpm[] = {
/* width height num_colors chars_per_pixel */
"    11    11        8            1",
/* colors */
"` c #000000",
". c #b8b8b8",
"# c #444244",
"a c #ffffff",
"b c #cccecc",
"c c #646264",
"d c #272527",
"e c #7b7d7b",
/* pixels */
"``````.aaaa",
"``````.aaaa",
"`#aaaaaaaaa",
"`deeeeee.aa",
"`````````db",
"eeeeeeecd`d",
"aaaaaaaaa``",
"aaaaaaaaa``",
"aaaaaaaa.``",
"``````````c",
"````````dea"
};
