/* XPM */
static const char *D7_xpm[] = {
/* width height num_colors chars_per_pixel */
"    11    11        8            1",
/* colors */
"` c #000000",
". c #9f9d9f",
"# c #d8d8d8",
"a c #444244",
"b c #ffffff",
"c c #747574",
"d c #2c2a2c",
"e c #bcbcbc",
/* pixels */
"c`````````d",
"c``````````",
"bbbbbbbbd`.",
"bbbbbbbc`ab",
"bbbbbb#``#b",
"bbbbbba`cbb",
"bbbbb.`dbbb",
"bbbbb``ebbb",
"bbbbc`cbbbb",
"bbbe``bbbbb",
"bbbd`.bbbbb"
};
