/* XPM */
static const char *D8_xpm[] = {
/* width height num_colors chars_per_pixel */
"    11    11        8            1",
/* colors */
"` c #000000",
". c #abaaab",
"# c #4f4e4f",
"a c #e7e9e7",
"b c #2d2c2d",
"c c #787a78",
"d c #c0c1c0",
"e c #ffffff",
/* pixels */
"e.b`````bca",
"d`````````#",
"c`#deeea.``",
"c`deeeeee``",
".`bccccc#`b",
"eb````````.",
".``#ccccb`#",
"c`.eeeeee``",
"c`ceeeeea``",
"d`````````#",
"e.b``````#a"
};
