/* XPM */
static const char *Dcolon_xpm[] = {
/* width height num_colors chars_per_pixel */
"     8    11        8            1",
/* colors */
"` c #000000",
". c #bcbcbc",
"# c #eceeec",
"a c #545254",
"b c #ffffff",
"c c #343234",
"d c #646264",
"e c #f4f2f4",
/* pixels */
"bbbbbbbb",
"bbbbbbbb",
"bbbbbbbb",
"bbbbbbbb",
"bbbbbbbb",
"bba`dbbb",
"bbc`cbbb",
"bbe.bbbb",
"bb#.bbbb",
"bbc`cbbb",
"bba`dbbb"
};
