/* XPM */
static const char *Dsplash_xpm[] = {
/* width height num_colors chars_per_pixel */
"     8    11        8            1",
/* colors */
"` c #000000",
". c #a4a2a4",
"# c #dcdedc",
"a c #444244",
"b c #c1c1c1",
"c c #242224",
"d c #ffffff",
"e c #646264",
/* pixels */
"dddddddd",
"ddddd#`.",
"dddddecd",
"dddd#`.d",
"ddddecdd",
"ddd#`.dd",
"dddecddd",
"dd#`bddd",
"ddeadddd",
"db`bdddd",
"daaddddd"
};
