/* XPM */
static const char *Lock_xpm[] = {
/* width height num_colors chars_per_pixel */
"    53    23        8            1",
/* colors */
"` c #151515",
". c #949494",
"# c #535455",
"a c #353637",
"b c #d5d5d5",
"c c #b3b3b3",
"d c #7d7d7d",
"e c #ffffff",
/* pixels */
"eeeeeeeeeeeeeeeeeeeeeeeeeeeeeeeeeeeeeeeeeeeeeeeeeeeee",
"eeeeeeeeeeeeeeeeeeeeeeeeeeeeeeeeeeeeeeeeeeeeeeeeeeeee",
"eeeeeeeeeeeeeeeeeeeeeeeeeeeeeeeeeeeeeeb#deeeeeeeeeeee",
"eeeeeeeeeeeeeeeeeeeeeeeeeeeeeeeeeeeeeba``deeeeeeeeeee",
"eeeeeeeeeeeeeeeeeeeeeeeeeeeeeeeeeeeeea````ceeeeeeeeee",
"eeeeeeeeeeeeeeeeeeeeeeeeeeeeeeeeeeeec`````#eeeeeeeeee",
"eeeeeeeeeeeeeeeeeeeeeeeeeeeeeeeeeeee#``#d``eeeeeeeeee",
"eeeeeeeeeeeeeeeeeeeeeeeeeeeeeeeeeeeb``acb``beeeeeeeee",
"eeeeeeeeeeeeeeeeeeeeeeeeeeeeeeeeeeed``#e.``beeeeeeeee",
"eeeeeeeeeeeeeeeeeeeeeeeeeeeeeeeeeeea``.e#`aeeeeeeeeee",
"eeeeeeeeeeeeeeeeeeeeeeeeeeeeeeeeeeea``be```deeeeeeeee",
"eeeeeeeeeeeeeeeeeeeeeeeeeeeeeeeeeeea`ae#````#eeeeeeee",
"eeeeeeeeeeeeeeeeeeeeeeeeeeeeeeeeeeed``#``````#eeeeeee",
"eeeeeeeeeeeeeeeeeeeeeeeeeeeeeeeeeeeba````#a```abeeeee",
"eeeeeeeeeeeeeeeeeeeeeeeeeeeeeeeeeeeec```ace#````ceeee",
"eeeeeeeeeeeeeeeeeeeeeeeeeeeeeeeeeeeeeda#ceeed````.eee",
"eeeeeeeeeeeeeeeeeeeeeeeeeeeeeeeeeeeeeebeeeeeec````cee",
"eeeeeeeeeeeeeeeeeeeeeeeeeeeeeeeeeeeeeeeeeeeeee#``acee",
"eeeeeeeeeeeeeeeeeeeeeeeeeeeeeeeeeeeeeeeeeeeeeb``a#eee",
"eeeeeeeeeeeeeeeeeeeeeeeeeeeeeeeeeeeeeeeeeeeeeb``.beee",
"eeeeeeeeeeeeeeeeeeeeeeeeeeeeeeeeeeeeeeeeeeeeeec#beeee",
"eeeeeeeeeeeeeeeeeeeeeeeeeeeeeeeeeeeeeeeeeeeeeeebeeeee",
"eeeeeeeeeeeeeeeeeeeeeeeeeeeeeeeeeeeeeeeeeeeeeeeeeeeee"
};
