/* XPM */
static const char *Mail_xpm[] = {
/* width height num_colors chars_per_pixel */
"    25    40        8            1",
/* colors */
"` c #151515",
". c #959596",
"# c #565858",
"a c #d3d4d3",
"b c #353637",
"c c #b7b7b8",
"d c #757677",
"e c #ffffff",
/* pixels */
"eeeeeeeeeeeeeeeeeeeeeeeee",
"eeeeeeeeeeeeeeeeeeeeeeeee",
"eeeeeeeeeeeeeeeeeeeeeeeee",
"eeeeeeeeeeeeeeeeeeeeeeeee",
"eeeeeeeeeeeeeeeeeeeeeeeee",
"eeeeeeeeeeeeeeeeeeeeeeeee",
"eeeeeeeeeeeeeeeeeeeeeeeee",
"eeeeeeeeeeeeeeeeeeeeeeeee",
"eeeeeeeeeeeeeeeeeeeeeeeee",
"eeeeeeeeeeeeeeeeeeeeeeeee",
"eeeeeeeeeeeeeeeeeeeeeeeee",
"eeeeeeeeeeeeeeeeeeeeeeeee",
"eeeeeeeeec#eeeeeeeeeeeeee",
"eeeeeeeeeb`bceeeeeeeeeeee",
"eeeeeeeec````#aeeeeeeeeee",
"eeeeeeee#``````.eeeeeeeee",
"eeeeeeea````````bceeeeeee",
"eeeeeee#````bc#```#aeeeee",
"eeeeeea``b#``ce.b```deeee",
"eeeeeed``beb`#eeed```bcee",
"eeeeee```de.``aeeea#``bae",
"eeeee.``baea``.eeeee#`bde",
"eeeeeb``deec``#eeeee``bae",
"eeee.``bcee#``deeee.``dee",
"eeeeb``#eea``baeeeeb`baee",
"eeec``bceed``#eeeea``#eee",
"eee#``#eee``bceeeed`b.eee",
"eea``b.adb``beeeee``baeee",
"eed``bb````b.eeee.``deeee",
"ea````````b#aeeeeb`bceeee",
"e``````b#dceeeeea``#eeeee",
"e#`````#aeeeeeee#``.eeeee",
"ee.b````b.aeeeee``baeeeee",
"eeea.b`````daee.``deeeeee",
"eeeeeec#`````#cb`bceeeeee",
"eeeeeeeeadb``````#eeeeeee",
"eeeeeeeeeee.b````.eeeeeee",
"eeeeeeeeeeeeecdb#aeeeeeee",
"eeeeeeeeeeeeeeecceeeeeeee",
"eeeeeeeeeeeeeeeeeeeeeeeee"
};
