/* XPM */
static const char *pm_xpm[] = {
/* width height num_colors chars_per_pixel */
"    51    48        8            1",
/* colors */
"` c #000000",
". c #b1afb1",
"# c #5e605e",
"a c #d6d8d6",
"b c #7a7b7a",
"c c #363836",
"d c #ffffff",
"e c #c1c1c1",
/* pixels */
"ddddddddddddddddddddddddddddddddddddddddddddddddddd",
"ddddddddddddddddddddddddddddddddddddddddddddddddddd",
"ddddddddddddddddddddddddddddddddddddddddddddddddddd",
"ddddddddddddddddddddddddddddddddddddddddddddddddddd",
"ddddddddddddddddddddddddddddddddddddddddddddddddddd",
"ddddddddddddddddddddddddddddddddddddddddddddddddddd",
"ddddddddddddddddddddddddddddddddddddddddddddddddddd",
"ddddddddddddddddddddddddddddddddddddddddddddddddddd",
"ddddddddddddddddddddddddddddddddddddddddddddddddddd",
"ddddddddddddddddddddddddddddddddddddddddddddddddddd",
"ddddddddddddddddddddddddddddddddddddddddddddddddddd",
"ddddddddddddddddddddddddddddddddddddddddddddddddddd",
"ddddddddddddddddddddddddddddddddddddddddddddddddddd",
"ddddddddddddddddddddddddddddddddddddddddddddddddddd",
"ddddddddddddddddddddddddddddddddddddddddddddddddddd",
"ddddddddddddddddddddddddddddddddddddddddddddddddddd",
"ddddddddddddddddddddddddddddddddddddddddddddddddddd",
"ddddddddddddddddddddddddddddddddddddddddddddddddddd",
"ddddddddddddddddddddddddddddddddddddddddddddddddddd",
"ddddddddddddddddddddddddddddddddddddddddddddddddddd",
"ddddddddddddddddddddddddddddddddddddddddddddddddddd",
"ddddddddddddddddddddddddddddddddddddddddddddddddddd",
"ddddddddddddddddddddddddddddddddddddddddddddddddddd",
"ddddddddddddddddddddddddddddddddddddddddddddddddddd",
"ddddddddddddddddddddddddddddddddddddddddddddddddddd",
"ddddddddddddddddddddddddddddddddddddddddddddddddddd",
"ddddddddddddddddddddddddddddddddddddddddddddddddddd",
"ddddddddddddddddddddddddddddddddddddddddddddddddddd",
"ddddddddddddddddddddddddddddddddddddddddddddddddddd",
"ddddddddddddddddddddddddddddddddddddddddddddddddddd",
"ddddddddddddddddddddddddddddddddddddddddddddddddddd",
"ddddddddddddddddddddddddddddddddddddddddddddddddddd",
"ddddddddddddddddddddddddddddddddddddddddddddddddddd",
"ddddddddddddddddddddddddddddddddddddddddddddddddddd",
"ddddddddddddddddddddddddddddddddddddddddddddddddddd",
"ddddddddddddddddddddddddddddddddddddddddddddddddddd",
"ddddddddddddddddddddddddddddddddddddddddddddddddddd",
"ddddddddddddddddddddddddec``````cddde`````bb````cdd",
"ddddddddddddddddddddddda``````````da``````````````d",
"dddddddddddddddddddddddb``######``#b``##b#``####``#",
"dddddddddddddddddddddddb``bddddd``#b``bdda``#add``#",
"dddddddddddddddddddddddb``bddddd``#b``bdda``#ddd``#",
"dddddddddddddddddddddddb``#aaaa.``#b``bdda``#ddd``#",
"dddddddddddddddddddddddb``````````#b``bdda``#ddd``#",
"dddddddddddddddddddddddb````````c##b``bdda``#ddd``#",
"dddddddddddddddddddddddb``#bbbbbbedd.#bddda##dddd##",
"dddddddddddddddddddddddb``bdddddddddddddddddddddddd",
"dddddddddddddddddddddddd.#bdddddddddddddddddddddddd"
};
