/* XPM */
static const char *C6_xpm[] = {
/* width height num_colors chars_per_pixel */
"    33    35      256            2",
/* colors */
"`` c #ffffff",
"`. c #acaeac",
"`# c #7b7d7b",
"`a c #393c39",
"`b c #101010",
"`c c #000000",
"`d c #eeeeee",
"`e c #313031",
"`f c #b4b2b4",
"`g c #cdcecd",
"`h c #202020",
"`i c #a4a1a4",
"`j c #525052",
"`k c #202420",
"`l c #4a4c4a",
"`m c #000400",
"`n c #626562",
"`o c #838183",
"`p c #dedade",
"`q c #292c29",
"`r c #737173",
"`s c #acaaac",
"`t c #393839",
"`u c #8b8d8b",
"`v c #838583",
"`w c #c5c2c5",
"`x c #f6f6f6",
"`y c #414041",
"`z c #080c08",
"`A c #bdbebd",
"`B c #c5c6c5",
"`C c #414441",
"`D c #949594",
"`E c #6a6d6a",
"`F c #dedede",
"`G c #9c9d9c",
"`H c #5a5d5a",
"`I c #181c18",
"`J c #d5d2d5",
"`K c #626162",
"`L c #e6e2e6",
"`M c #080808",
"`N c #181818",
"`O c #7b797b",
"`P c #000000",
"`Q c #000000",
"`R c #000000",
"`S c #000000",
"`T c #000000",
"`U c #000000",
"`V c #000000",
"`W c #000000",
"`X c #000000",
"`Y c #000000",
"`Z c #000000",
"`0 c #000000",
"`1 c #000000",
"`2 c #000000",
"`3 c #000000",
"`4 c #000000",
"`5 c #000000",
"`6 c #000000",
"`7 c #000000",
"`8 c #000000",
".` c #000000",
".. c #000000",
".# c #000000",
".a c #000000",
".b c #000000",
".c c #000000",
".d c #000000",
".e c #000000",
".f c #000000",
".g c #000000",
".h c #000000",
".i c #000000",
".j c #000000",
".k c #000000",
".l c #000000",
".m c #000000",
".n c #000000",
".o c #000000",
".p c #000000",
".q c #000000",
".r c #000000",
".s c #000000",
".t c #000000",
".u c #000000",
".v c #000000",
".w c #000000",
".x c #000000",
".y c #000000",
".z c #000000",
".A c #000000",
".B c #000000",
".C c #000000",
".D c #000000",
".E c #000000",
".F c #000000",
".G c #000000",
".H c #000000",
".I c #000000",
".J c #000000",
".K c #000000",
".L c #000000",
".M c #000000",
".N c #000000",
".O c #000000",
".P c #000000",
".Q c #000000",
".R c #000000",
".S c #000000",
".T c #000000",
".U c #000000",
".V c #000000",
".W c #000000",
".X c #000000",
".Y c #000000",
".Z c #000000",
".0 c #000000",
".1 c #000000",
".2 c #000000",
".3 c #000000",
".4 c #000000",
".5 c #000000",
".6 c #000000",
".7 c #000000",
".8 c #000000",
"#` c #000000",
"#. c #000000",
"## c #000000",
"#a c #000000",
"#b c #000000",
"#c c #000000",
"#d c #000000",
"#e c #000000",
"#f c #000000",
"#g c #000000",
"#h c #000000",
"#i c #000000",
"#j c #000000",
"#k c #000000",
"#l c #000000",
"#m c #000000",
"#n c #000000",
"#o c #000000",
"#p c #000000",
"#q c #000000",
"#r c #000000",
"#s c #000000",
"#t c #000000",
"#u c #000000",
"#v c #000000",
"#w c #000000",
"#x c #000000",
"#y c #000000",
"#z c #000000",
"#A c #000000",
"#B c #000000",
"#C c #000000",
"#D c #000000",
"#E c #000000",
"#F c #000000",
"#G c #000000",
"#H c #000000",
"#I c #000000",
"#J c #000000",
"#K c #000000",
"#L c #000000",
"#M c #000000",
"#N c #000000",
"#O c #000000",
"#P c #000000",
"#Q c #000000",
"#R c #000000",
"#S c #000000",
"#T c #000000",
"#U c #000000",
"#V c #000000",
"#W c #000000",
"#X c #000000",
"#Y c #000000",
"#Z c #000000",
"#0 c #000000",
"#1 c #000000",
"#2 c #000000",
"#3 c #000000",
"#4 c #000000",
"#5 c #000000",
"#6 c #000000",
"#7 c #000000",
"#8 c #000000",
"a` c #000000",
"a. c #000000",
"a# c #000000",
"aa c #000000",
"ab c #000000",
"ac c #000000",
"ad c #000000",
"ae c #000000",
"af c #000000",
"ag c #000000",
"ah c #000000",
"ai c #000000",
"aj c #000000",
"ak c #000000",
"al c #000000",
"am c #000000",
"an c #000000",
"ao c #000000",
"ap c #000000",
"aq c #000000",
"ar c #000000",
"as c #000000",
"at c #000000",
"au c #000000",
"av c #000000",
"aw c #000000",
"ax c #000000",
"ay c #000000",
"az c #000000",
"aA c #000000",
"aB c #000000",
"aC c #000000",
"aD c #000000",
"aE c #000000",
"aF c #000000",
"aG c #000000",
"aH c #000000",
"aI c #000000",
"aJ c #000000",
"aK c #000000",
"aL c #000000",
"aM c #000000",
"aN c #000000",
"aO c #000000",
"aP c #000000",
"aQ c #000000",
"aR c #000000",
"aS c #000000",
"aT c #000000",
"aU c #000000",
"aV c #000000",
"aW c #000000",
"aX c #000000",
"aY c #000000",
"aZ c #000000",
"a0 c #000000",
"a1 c #000000",
"a2 c #000000",
"a3 c #000000",
"a4 c #000000",
"a5 c #000000",
"a6 c #000000",
"a7 c #000000",
"a8 c #000000",
/* pixels */
"`````````````.`#`a`a`b`c`c`c`c`c`c`#``````````````````````````````",
"```````d`#`b`c`c`c`c`c`c`c`c`c`c`c`e`f````````````````````````````",
"`````g`b`c`c`c`c`c`c`c`c`c`c`c`c`c`e`f````````````````````````````",
"```g`b`c`c`c`c`c`c`c`c`c`c`c`c`c`c`e`f````````````````````````````",
"```h`c`c`c`c`c`c`c`c`c`c`c`c`c`c`c`e`f````````````````````````````",
"`i`c`c`c`c`c`c`c`c`c`c`c`c`c`c`c`c`e`f````````````````````````````",
"`j`c`c`c`c`c`c`b`k`e`e`e`e`e`e`e`e`l`f````````````````````````````",
"`h`c`c`c`c`m`l`n`o`i`f`f`f`f`f`f`f`f`p````````````````````````````",
"`c`c`c`c`c`q`r`p``````````````````````````````````````````````````",
"`c`c`c`c`c`e`s````````````````````````````````````````````````````",
"`c`c`c`c`c`e`f````````````````````````````````````````````````````",
"`c`c`c`c`c`c`c`c`c`c`c`c`c`c`c`c`c`c`c`c`c`c`c`b`a`#`g````````````",
"`c`c`c`c`c`c`c`c`c`c`c`c`c`c`c`c`c`c`c`c`c`c`c`c`c`c`c`t`g````````",
"`c`c`c`c`c`c`c`c`c`c`c`c`c`c`c`c`c`c`c`c`c`c`c`c`c`c`c`c`c`u``````",
"`c`c`c`c`c`c`c`c`c`c`c`c`c`c`c`c`c`c`c`c`c`c`c`c`c`c`c`c`c`c`v````",
"`c`c`c`c`c`c`c`c`c`c`c`c`c`c`c`c`c`c`c`c`c`c`c`c`c`c`c`c`c`c`m`w``",
"`c`c`c`c`c`c`c`c`c`c`c`c`c`c`c`c`c`c`c`c`c`c`c`c`c`c`c`c`c`c`c`a`x",
"`c`c`c`c`c`k`l`l`l`l`l`l`l`l`l`l`l`l`l`l`l`y`e`k`z`c`c`c`c`c`c`h`A",
"`c`c`c`c`c`e`i`p`p`p`p`p`p`p`p`p`p`p`p`p`p`p`B`f`i`C`m`c`c`c`c`m`D",
"`c`c`c`c`c`e`f```````````````````````````````````````j`c`c`c`c`c`r",
"`c`c`c`c`c`e`f```````````````````````````````````````A`c`c`c`c`c`n",
"`c`c`c`c`c`e`f```````````````````````````````````````A`c`c`c`c`c`n",
"`c`c`c`c`c`e`f```````````````````````````````````````A`c`c`c`c`c`n",
"`c`c`c`c`c`e`f```````````````````````````````````````A`c`c`c`c`c`n",
"`c`c`c`c`c`e`f```````````````````````````````````````A`c`c`c`c`c`n",
"`c`c`c`c`c`h`f```````````````````````````````````````E`c`c`c`c`c`n",
"`e`c`c`c`c`c`q`F```````````````````````````````````G`z`c`c`c`c`m`n",
"`r`c`c`c`c`c`c`c`q`E`#`#`#`#`#`#`#`#`#`#`#`#`#`H`I`c`c`c`c`c`c`h`r",
"`J`c`c`c`c`c`c`c`c`c`c`c`c`c`c`c`c`c`c`c`c`c`c`c`c`c`c`c`c`c`c`y`D",
"```t`c`c`c`c`c`c`c`c`c`c`c`c`c`c`c`c`c`c`c`c`c`c`c`c`c`c`c`c`m`K`B",
"```L`M`c`c`c`c`c`c`c`c`c`c`c`c`c`c`c`c`c`c`c`c`c`c`c`c`c`c`c`C`r`x",
"`````f`m`c`c`c`c`c`c`c`c`c`c`c`c`c`c`c`c`c`c`c`c`c`c`c`c`c`y`n`J``",
"```````f`I`c`c`c`c`c`c`c`c`c`c`c`c`c`c`c`c`c`c`c`c`c`c`N`j`n`B````",
"`````````L`r`e`N`z`c`c`c`c`c`c`c`c`c`c`c`c`c`c`m`N`e`j`n`u`L``````",
"`````````````L`f`u`O`n`n`n`n`n`n`n`n`n`n`n`n`n`n`r`u`f`L``````````"
};
