/* XPM */
static const char *C8_xpm[] = {
/* width height num_colors chars_per_pixel */
"    33    35      256            2",
/* colors */
"`` c #ffffff",
"`. c #dedede",
"`# c #9c9d9c",
"`a c #6a6d6a",
"`b c #393c39",
"`c c #101010",
"`d c #000000",
"`e c #5a5d5a",
"`f c #5a595a",
"`g c #080808",
"`h c #949194",
"`i c #acaeac",
"`j c #838583",
"`k c #eeeeee",
"`l c #000400",
"`m c #c5c2c5",
"`n c #a4a1a4",
"`o c #414441",
"`p c #f6f6f6",
"`q c #525052",
"`r c #080c08",
"`s c #202420",
"`t c #313031",
"`u c #4a4c4a",
"`v c #181818",
"`w c #c5c6c5",
"`x c #202020",
"`y c #393839",
"`z c #626562",
"`A c #7b797b",
"`B c #b4b2b4",
"`C c #d5d2d5",
"`D c #dedade",
"`E c #8b8d8b",
"`F c #bdbebd",
"`G c #737173",
"`H c #838183",
"`I c #414041",
"`J c #6a696a",
"`K c #7b7d7b",
"`L c #949594",
"`M c #e6e2e6",
"`N c #4a484a",
"`O c #292c29",
"`P c #cdcecd",
"`Q c #626162",
"`R c #acaaac",
"`S c #101410",
"`T c #f6f2f6",
"`U c #181c18",
"`V c #eeeaee",
"`W c #525552",
"`X c #000000",
"`Y c #000000",
"`Z c #000000",
"`0 c #000000",
"`1 c #000000",
"`2 c #000000",
"`3 c #000000",
"`4 c #000000",
"`5 c #000000",
"`6 c #000000",
"`7 c #000000",
"`8 c #000000",
".` c #000000",
".. c #000000",
".# c #000000",
".a c #000000",
".b c #000000",
".c c #000000",
".d c #000000",
".e c #000000",
".f c #000000",
".g c #000000",
".h c #000000",
".i c #000000",
".j c #000000",
".k c #000000",
".l c #000000",
".m c #000000",
".n c #000000",
".o c #000000",
".p c #000000",
".q c #000000",
".r c #000000",
".s c #000000",
".t c #000000",
".u c #000000",
".v c #000000",
".w c #000000",
".x c #000000",
".y c #000000",
".z c #000000",
".A c #000000",
".B c #000000",
".C c #000000",
".D c #000000",
".E c #000000",
".F c #000000",
".G c #000000",
".H c #000000",
".I c #000000",
".J c #000000",
".K c #000000",
".L c #000000",
".M c #000000",
".N c #000000",
".O c #000000",
".P c #000000",
".Q c #000000",
".R c #000000",
".S c #000000",
".T c #000000",
".U c #000000",
".V c #000000",
".W c #000000",
".X c #000000",
".Y c #000000",
".Z c #000000",
".0 c #000000",
".1 c #000000",
".2 c #000000",
".3 c #000000",
".4 c #000000",
".5 c #000000",
".6 c #000000",
".7 c #000000",
".8 c #000000",
"#` c #000000",
"#. c #000000",
"## c #000000",
"#a c #000000",
"#b c #000000",
"#c c #000000",
"#d c #000000",
"#e c #000000",
"#f c #000000",
"#g c #000000",
"#h c #000000",
"#i c #000000",
"#j c #000000",
"#k c #000000",
"#l c #000000",
"#m c #000000",
"#n c #000000",
"#o c #000000",
"#p c #000000",
"#q c #000000",
"#r c #000000",
"#s c #000000",
"#t c #000000",
"#u c #000000",
"#v c #000000",
"#w c #000000",
"#x c #000000",
"#y c #000000",
"#z c #000000",
"#A c #000000",
"#B c #000000",
"#C c #000000",
"#D c #000000",
"#E c #000000",
"#F c #000000",
"#G c #000000",
"#H c #000000",
"#I c #000000",
"#J c #000000",
"#K c #000000",
"#L c #000000",
"#M c #000000",
"#N c #000000",
"#O c #000000",
"#P c #000000",
"#Q c #000000",
"#R c #000000",
"#S c #000000",
"#T c #000000",
"#U c #000000",
"#V c #000000",
"#W c #000000",
"#X c #000000",
"#Y c #000000",
"#Z c #000000",
"#0 c #000000",
"#1 c #000000",
"#2 c #000000",
"#3 c #000000",
"#4 c #000000",
"#5 c #000000",
"#6 c #000000",
"#7 c #000000",
"#8 c #000000",
"a` c #000000",
"a. c #000000",
"a# c #000000",
"aa c #000000",
"ab c #000000",
"ac c #000000",
"ad c #000000",
"ae c #000000",
"af c #000000",
"ag c #000000",
"ah c #000000",
"ai c #000000",
"aj c #000000",
"ak c #000000",
"al c #000000",
"am c #000000",
"an c #000000",
"ao c #000000",
"ap c #000000",
"aq c #000000",
"ar c #000000",
"as c #000000",
"at c #000000",
"au c #000000",
"av c #000000",
"aw c #000000",
"ax c #000000",
"ay c #000000",
"az c #000000",
"aA c #000000",
"aB c #000000",
"aC c #000000",
"aD c #000000",
"aE c #000000",
"aF c #000000",
"aG c #000000",
"aH c #000000",
"aI c #000000",
"aJ c #000000",
"aK c #000000",
"aL c #000000",
"aM c #000000",
"aN c #000000",
"aO c #000000",
"aP c #000000",
"aQ c #000000",
"aR c #000000",
"aS c #000000",
"aT c #000000",
"aU c #000000",
"aV c #000000",
"aW c #000000",
"aX c #000000",
"aY c #000000",
"aZ c #000000",
"a0 c #000000",
"a1 c #000000",
"a2 c #000000",
"a3 c #000000",
"a4 c #000000",
"a5 c #000000",
"a6 c #000000",
"a7 c #000000",
"a8 c #000000",
/* pixels */
"```````````.`#`a`b`c`d`d`d`d`d`d`d`d`d`d`d`d`c`b`a`#`.````````````",
"```````.`e`d`d`d`d`d`d`d`d`d`d`d`d`d`d`d`d`d`d`d`d`d`d`f`.````````",
"`````#`c`d`d`d`d`d`d`d`d`d`d`d`d`d`d`d`d`d`d`d`d`d`d`d`d`g`h``````",
"```i`d`d`d`d`d`d`d`d`d`d`d`d`d`d`d`d`d`d`d`d`d`d`d`d`d`d`d`d`j````",
"`k`c`d`d`d`d`d`d`d`d`d`d`d`d`d`d`d`d`d`d`d`d`d`d`d`d`d`d`d`d`l`m``",
"`n`d`d`d`d`d`d`d`d`d`d`d`d`d`d`d`d`d`d`d`d`d`d`d`d`d`d`d`d`d`d`o`p",
"`q`d`d`d`d`d`d`r`s`t`t`o`u`u`u`u`u`u`u`u`o`t`t`s`r`d`d`d`d`d`d`v`w",
"`x`d`d`d`d`d`y`z`A`n`B`B`C`D`D`D`D`D`D`D`D`C`B`B`n`o`d`d`d`d`d`l`E",
"`d`d`d`d`d`c`z`F`````````````````````````````````````s`d`d`d`d`d`G",
"`d`d`d`d`d`v`H```````````````````````````````````````b`d`d`d`d`d`z",
"`d`d`d`d`d`v`E```````````````````````````````````````b`d`d`d`d`d`z",
"`x`d`d`d`d`v`E```````````````````````````````````````b`d`d`d`d`c`z",
"`I`d`d`d`d`d`J`````````````````````````````````````E`d`d`d`d`d`x`H",
"`K`d`d`d`d`d`d`v`b`K`K`K`K`K`K`K`K`K`K`K`K`K`u`b`r`d`d`d`d`d`d`y`L",
"`M`d`d`d`d`d`d`d`d`d`d`d`d`d`d`d`d`d`d`d`d`d`d`d`d`d`d`d`d`d`d`f`F",
"```J`d`d`d`d`d`d`d`d`d`d`d`d`d`d`d`d`d`d`d`d`d`d`d`d`d`d`d`d`t`z`k",
"`````N`d`d`d`d`d`d`d`d`d`d`d`d`d`d`d`d`d`d`d`d`d`d`d`d`d`d`O`z`B``",
"```.`c`d`d`d`d`d`d`d`d`d`d`d`d`d`d`d`d`d`d`d`d`d`d`d`d`d`d`c`#````",
"```I`d`d`d`d`d`d`d`d`d`d`d`d`d`d`d`d`d`d`d`d`d`d`d`d`d`d`d`d`x`p``",
"`P`d`d`d`d`d`d`d`d`d`d`d`d`d`d`d`d`d`d`d`d`d`d`d`d`d`d`d`d`d`d`J``",
"`h`d`d`d`d`d`l`O`u`Q`z`z`z`z`z`z`z`z`z`z`z`z`z`q`I`c`d`d`d`d`d`O`D",
"`Q`d`d`d`d`l`Q`G`R`D`p```````````````````````````M`w`c`d`d`d`d`v`R",
"`I`d`d`d`d`v`G`p`````````````````````````````````````b`d`d`d`d`l`E",
"`I`d`d`d`d`v`E```````````````````````````````````````b`d`d`d`d`d`G",
"`I`d`d`d`d`v`E```````````````````````````````````````b`d`d`d`d`d`z",
"`I`d`d`d`d`l`H```````````````````````````````````````O`d`d`d`d`d`z",
"`I`d`d`d`d`d`S`R`````````````````````````````````k`a`d`d`d`d`d`r`z",
"`G`d`d`d`d`d`d`d`r`u`K`K`K`K`K`K`K`K`K`K`K`K`K`b`r`d`d`d`d`d`d`s`A",
"`M`d`d`d`d`d`d`d`d`d`d`d`d`d`d`d`d`d`d`d`d`d`d`d`d`d`d`d`d`d`d`o`n",
"```N`d`d`d`d`d`d`d`d`d`d`d`d`d`d`d`d`d`d`d`d`d`d`d`d`d`d`d`d`c`z`C",
"```T`U`d`d`d`d`d`d`d`d`d`d`d`d`d`d`d`d`d`d`d`d`d`d`d`d`d`d`l`q`H``",
"`````V`x`d`d`d`d`d`d`d`d`d`d`d`d`d`d`d`d`d`d`d`d`d`d`d`d`r`q`G`M``",
"```````p`f`r`d`d`d`d`d`d`d`d`d`d`d`d`d`d`d`d`d`d`d`d`l`t`Q`A`M````",
"```````````w`W`O`v`l`d`d`d`d`d`d`d`d`d`d`d`d`d`v`O`o`z`G`B`p``````",
"```````````````C`R`E`G`z`z`z`z`z`z`z`z`z`z`z`z`z`E`R`C````````````"
};
