/* XPM */
static const char *C9_xpm[] = {
/* width height num_colors chars_per_pixel */
"    33    35      256            2",
/* colors */
"`` c #ffffff",
"`. c #eeeeee",
"`# c #9c9d9c",
"`a c #4a4c4a",
"`b c #313031",
"`c c #000000",
"`d c #393c39",
"`e c #6a6d6a",
"`f c #acaeac",
"`g c #080c08",
"`h c #7b7d7b",
"`i c #cdcecd",
"`j c #101010",
"`k c #202020",
"`l c #c5c6c5",
"`m c #080808",
"`n c #d5d6d5",
"`o c #181c18",
"`p c #f6f6f6",
"`q c #a4a1a4",
"`r c #6a696a",
"`s c #525052",
"`t c #000400",
"`u c #202420",
"`v c #393839",
"`w c #414041",
"`x c #292c29",
"`y c #dedade",
"`z c #626562",
"`A c #737173",
"`B c #b4b2b4",
"`C c #bdbebd",
"`D c #acaaac",
"`E c #626162",
"`F c #cdcacd",
"`G c #838183",
"`H c #181818",
"`I c #8b8d8b",
"`J c #dedede",
"`K c #f6f2f6",
"`L c #838583",
"`M c #7b797b",
"`N c #949594",
"`O c #e6e2e6",
"`P c #000000",
"`Q c #000000",
"`R c #000000",
"`S c #000000",
"`T c #000000",
"`U c #000000",
"`V c #000000",
"`W c #000000",
"`X c #000000",
"`Y c #000000",
"`Z c #000000",
"`0 c #000000",
"`1 c #000000",
"`2 c #000000",
"`3 c #000000",
"`4 c #000000",
"`5 c #000000",
"`6 c #000000",
"`7 c #000000",
"`8 c #000000",
".` c #000000",
".. c #000000",
".# c #000000",
".a c #000000",
".b c #000000",
".c c #000000",
".d c #000000",
".e c #000000",
".f c #000000",
".g c #000000",
".h c #000000",
".i c #000000",
".j c #000000",
".k c #000000",
".l c #000000",
".m c #000000",
".n c #000000",
".o c #000000",
".p c #000000",
".q c #000000",
".r c #000000",
".s c #000000",
".t c #000000",
".u c #000000",
".v c #000000",
".w c #000000",
".x c #000000",
".y c #000000",
".z c #000000",
".A c #000000",
".B c #000000",
".C c #000000",
".D c #000000",
".E c #000000",
".F c #000000",
".G c #000000",
".H c #000000",
".I c #000000",
".J c #000000",
".K c #000000",
".L c #000000",
".M c #000000",
".N c #000000",
".O c #000000",
".P c #000000",
".Q c #000000",
".R c #000000",
".S c #000000",
".T c #000000",
".U c #000000",
".V c #000000",
".W c #000000",
".X c #000000",
".Y c #000000",
".Z c #000000",
".0 c #000000",
".1 c #000000",
".2 c #000000",
".3 c #000000",
".4 c #000000",
".5 c #000000",
".6 c #000000",
".7 c #000000",
".8 c #000000",
"#` c #000000",
"#. c #000000",
"## c #000000",
"#a c #000000",
"#b c #000000",
"#c c #000000",
"#d c #000000",
"#e c #000000",
"#f c #000000",
"#g c #000000",
"#h c #000000",
"#i c #000000",
"#j c #000000",
"#k c #000000",
"#l c #000000",
"#m c #000000",
"#n c #000000",
"#o c #000000",
"#p c #000000",
"#q c #000000",
"#r c #000000",
"#s c #000000",
"#t c #000000",
"#u c #000000",
"#v c #000000",
"#w c #000000",
"#x c #000000",
"#y c #000000",
"#z c #000000",
"#A c #000000",
"#B c #000000",
"#C c #000000",
"#D c #000000",
"#E c #000000",
"#F c #000000",
"#G c #000000",
"#H c #000000",
"#I c #000000",
"#J c #000000",
"#K c #000000",
"#L c #000000",
"#M c #000000",
"#N c #000000",
"#O c #000000",
"#P c #000000",
"#Q c #000000",
"#R c #000000",
"#S c #000000",
"#T c #000000",
"#U c #000000",
"#V c #000000",
"#W c #000000",
"#X c #000000",
"#Y c #000000",
"#Z c #000000",
"#0 c #000000",
"#1 c #000000",
"#2 c #000000",
"#3 c #000000",
"#4 c #000000",
"#5 c #000000",
"#6 c #000000",
"#7 c #000000",
"#8 c #000000",
"a` c #000000",
"a. c #000000",
"a# c #000000",
"aa c #000000",
"ab c #000000",
"ac c #000000",
"ad c #000000",
"ae c #000000",
"af c #000000",
"ag c #000000",
"ah c #000000",
"ai c #000000",
"aj c #000000",
"ak c #000000",
"al c #000000",
"am c #000000",
"an c #000000",
"ao c #000000",
"ap c #000000",
"aq c #000000",
"ar c #000000",
"as c #000000",
"at c #000000",
"au c #000000",
"av c #000000",
"aw c #000000",
"ax c #000000",
"ay c #000000",
"az c #000000",
"aA c #000000",
"aB c #000000",
"aC c #000000",
"aD c #000000",
"aE c #000000",
"aF c #000000",
"aG c #000000",
"aH c #000000",
"aI c #000000",
"aJ c #000000",
"aK c #000000",
"aL c #000000",
"aM c #000000",
"aN c #000000",
"aO c #000000",
"aP c #000000",
"aQ c #000000",
"aR c #000000",
"aS c #000000",
"aT c #000000",
"aU c #000000",
"aV c #000000",
"aW c #000000",
"aX c #000000",
"aY c #000000",
"aZ c #000000",
"a0 c #000000",
"a1 c #000000",
"a2 c #000000",
"a3 c #000000",
"a4 c #000000",
"a5 c #000000",
"a6 c #000000",
"a7 c #000000",
"a8 c #000000",
/* pixels */
"```````````.`#`a`b`c`c`c`c`c`c`c`c`c`c`c`c`c`c`d`e`f``````````````",
"```````.`e`c`c`c`c`c`c`c`c`c`c`c`c`c`c`c`c`c`c`c`c`c`g`h`.````````",
"`````i`j`c`c`c`c`c`c`c`c`c`c`c`c`c`c`c`c`c`c`c`c`c`c`c`c`k`l``````",
"```i`j`c`c`c`c`c`c`c`c`c`c`c`c`c`c`c`c`c`c`c`c`c`c`c`c`c`c`m`n````",
"```k`c`c`c`c`c`c`c`c`c`c`c`c`c`c`c`c`c`c`c`c`c`c`c`c`c`c`c`c`o`p``",
"`q`c`c`c`c`c`c`c`c`c`c`c`c`c`c`c`c`c`c`c`c`c`c`c`c`c`c`c`c`c`c`r``",
"`s`c`c`c`c`c`c`t`u`b`v`a`a`a`a`a`a`a`a`a`w`b`x`j`c`c`c`c`c`c`c`u`y",
"`j`c`c`c`c`c`b`z`A`q`B`C`y`y`y`y`y`y`y`y`y`l`B`D`E`j`c`c`c`c`c`j`q",
"`c`c`c`c`c`j`z`B```````````````````````````````````F`m`c`c`c`c`c`G",
"`c`c`c`c`c`H`G```````````````````````````````````````d`c`c`c`c`c`z",
"`c`c`c`c`c`H`I```````````````````````````````````````d`c`c`c`c`c`z",
"`c`c`c`c`c`H`I```````````````````````````````````````d`c`c`c`c`c`z",
"`c`c`c`c`c`H`I```````````````````````````````````````d`c`c`c`c`c`z",
"`c`c`c`c`c`H`I```````````````````````````````````````d`c`c`c`c`c`z",
"`c`c`c`c`c`g`I```````````````````````````````````````d`c`c`c`c`c`z",
"`j`c`c`c`c`c`u`J`````````````````````````````````````d`c`c`c`c`c`z",
"`w`c`c`c`c`c`c`c`v`e`h`h`h`h`h`h`h`h`h`h`h`h`h`h`h`h`o`c`c`c`c`c`z",
"`q`c`c`c`c`c`c`c`c`c`c`c`c`c`c`c`c`c`c`c`c`c`c`c`c`c`c`c`c`c`c`c`z",
"`K`g`c`c`c`c`c`c`c`c`c`c`c`c`c`c`c`c`c`c`c`c`c`c`c`c`c`c`c`c`c`c`z",
"```D`c`c`c`c`c`c`c`c`c`c`c`c`c`c`c`c`c`c`c`c`c`c`c`c`c`c`c`c`c`c`z",
"`````G`c`c`c`c`c`c`c`c`c`c`c`c`c`c`c`c`c`c`c`c`c`c`c`c`c`c`c`c`c`z",
"```````f`k`c`c`c`c`c`c`c`c`c`c`c`c`c`c`c`c`c`c`c`c`c`c`c`c`c`c`c`z",
"`````````.`L`v`u`H`t`c`c`c`c`c`c`c`c`c`c`c`c`c`c`c`c`c`c`c`c`c`c`z",
"`````````````.`C`q`I`A`z`z`z`z`z`z`z`z`z`z`z`z`z`z`z`H`c`c`c`c`c`z",
"`````````````````````````````````````````````````````w`c`c`c`c`c`z",
"```````````````````````````````````````````````````.`j`c`c`c`c`c`z",
"`````````````````````````````````````````````````J`b`c`c`c`c`c`g`z",
"`````````````````````````````J`C`C`C`C`f`h`h`e`b`c`c`c`c`c`c`c`k`M",
"`````````````````````````````h`c`c`c`c`c`c`c`c`c`c`c`c`c`c`c`c`w`N",
"`````````````````````````````h`c`c`c`c`c`c`c`c`c`c`c`c`c`c`c`g`z`l",
"`````````````````````````````h`c`c`c`c`c`c`c`c`c`c`c`c`c`c`t`s`M``",
"`````````````````````````````h`c`c`c`c`c`c`c`c`c`c`c`c`c`g`s`A`O``",
"`````````````````````````````h`c`c`c`c`c`c`c`c`c`c`c`t`b`E`M`O````",
"`````````````````````````````h`c`c`c`c`c`c`j`H`u`b`s`z`A`B`p``````",
"```````````````````````````````B`z`z`z`z`z`z`G`I`q`B`O````````````"
};
