/* XPM */
static const char *Call_xpm[] = {
/* width height num_colors chars_per_pixel */
"    36    74      256            2",
/* colors */
"`` c #ffffff",
"`. c #9c9d9c",
"`# c #5a595a",
"`a c #838583",
"`b c #a4a1a4",
"`c c #737173",
"`d c #101010",
"`e c #313031",
"`f c #cdcecd",
"`g c #eeeaee",
"`h c #8b8d8b",
"`i c #080c08",
"`j c #182020",
"`k c #5a5d62",
"`l c #e6e2e6",
"`m c #949194",
"`n c #838183",
"`o c #bdbabd",
"`p c #d5d6d5",
"`q c #181818",
"`r c #202420",
"`s c #202020",
"`t c #4a5052",
"`u c #d5d2d5",
"`v c #181410",
"`w c #414441",
"`x c #4a4c4a",
"`y c #101410",
"`z c #292c29",
"`A c #52595a",
"`B c #7b8183",
"`C c #525052",
"`D c #181c18",
"`E c #202018",
"`F c #525552",
"`G c #fffaff",
"`H c #c5c6c5",
"`I c #626562",
"`J c #6a696a",
"`K c #7b7d7b",
"`L c #b4b6b4",
"`M c #313431",
"`N c #6a7173",
"`O c #83858b",
"`P c #5a5d5a",
"`Q c #292829",
"`R c #dedede",
"`S c #f6f2f6",
"`T c #8b898b",
"`U c #080808",
"`V c #181c20",
"`W c #9c999c",
"`X c #313839",
"`Y c #4a4c52",
"`Z c #393c39",
"`0 c #313439",
"`1 c #626162",
"`2 c #e6e6e6",
"`3 c #94999c",
"`4 c #eeeeee",
"`5 c #62696a",
"`6 c #394041",
"`7 c #bdbebd",
"`8 c #dedade",
".` c #b4b6bd",
".. c #000000",
".# c #000000",
".a c #000000",
".b c #000000",
".c c #000000",
".d c #000000",
".e c #000000",
".f c #000000",
".g c #000000",
".h c #000000",
".i c #000000",
".j c #000000",
".k c #000000",
".l c #000000",
".m c #000000",
".n c #000000",
".o c #000000",
".p c #000000",
".q c #000000",
".r c #000000",
".s c #000000",
".t c #000000",
".u c #000000",
".v c #000000",
".w c #000000",
".x c #000000",
".y c #000000",
".z c #000000",
".A c #000000",
".B c #000000",
".C c #000000",
".D c #000000",
".E c #000000",
".F c #000000",
".G c #000000",
".H c #000000",
".I c #000000",
".J c #000000",
".K c #000000",
".L c #000000",
".M c #000000",
".N c #000000",
".O c #000000",
".P c #000000",
".Q c #000000",
".R c #000000",
".S c #000000",
".T c #000000",
".U c #000000",
".V c #000000",
".W c #000000",
".X c #000000",
".Y c #000000",
".Z c #000000",
".0 c #000000",
".1 c #000000",
".2 c #000000",
".3 c #000000",
".4 c #000000",
".5 c #000000",
".6 c #000000",
".7 c #000000",
".8 c #000000",
"#` c #000000",
"#. c #000000",
"## c #000000",
"#a c #000000",
"#b c #000000",
"#c c #000000",
"#d c #000000",
"#e c #000000",
"#f c #000000",
"#g c #000000",
"#h c #000000",
"#i c #000000",
"#j c #000000",
"#k c #000000",
"#l c #000000",
"#m c #000000",
"#n c #000000",
"#o c #000000",
"#p c #000000",
"#q c #000000",
"#r c #000000",
"#s c #000000",
"#t c #000000",
"#u c #000000",
"#v c #000000",
"#w c #000000",
"#x c #000000",
"#y c #000000",
"#z c #000000",
"#A c #000000",
"#B c #000000",
"#C c #000000",
"#D c #000000",
"#E c #000000",
"#F c #000000",
"#G c #000000",
"#H c #000000",
"#I c #000000",
"#J c #000000",
"#K c #000000",
"#L c #000000",
"#M c #000000",
"#N c #000000",
"#O c #000000",
"#P c #000000",
"#Q c #000000",
"#R c #000000",
"#S c #000000",
"#T c #000000",
"#U c #000000",
"#V c #000000",
"#W c #000000",
"#X c #000000",
"#Y c #000000",
"#Z c #000000",
"#0 c #000000",
"#1 c #000000",
"#2 c #000000",
"#3 c #000000",
"#4 c #000000",
"#5 c #000000",
"#6 c #000000",
"#7 c #000000",
"#8 c #000000",
"a` c #000000",
"a. c #000000",
"a# c #000000",
"aa c #000000",
"ab c #000000",
"ac c #000000",
"ad c #000000",
"ae c #000000",
"af c #000000",
"ag c #000000",
"ah c #000000",
"ai c #000000",
"aj c #000000",
"ak c #000000",
"al c #000000",
"am c #000000",
"an c #000000",
"ao c #000000",
"ap c #000000",
"aq c #000000",
"ar c #000000",
"as c #000000",
"at c #000000",
"au c #000000",
"av c #000000",
"aw c #000000",
"ax c #000000",
"ay c #000000",
"az c #000000",
"aA c #000000",
"aB c #000000",
"aC c #000000",
"aD c #000000",
"aE c #000000",
"aF c #000000",
"aG c #000000",
"aH c #000000",
"aI c #000000",
"aJ c #000000",
"aK c #000000",
"aL c #000000",
"aM c #000000",
"aN c #000000",
"aO c #000000",
"aP c #000000",
"aQ c #000000",
"aR c #000000",
"aS c #000000",
"aT c #000000",
"aU c #000000",
"aV c #000000",
"aW c #000000",
"aX c #000000",
"aY c #000000",
"aZ c #000000",
"a0 c #000000",
"a1 c #000000",
"a2 c #000000",
"a3 c #000000",
"a4 c #000000",
"a5 c #000000",
"a6 c #000000",
"a7 c #000000",
"a8 c #000000",
/* pixels */
"````````````````````````````````````````````````````````````````````````",
"````````````````````````````````````````````````````````````````````````",
"````````````````````````````````````````````````````````````````````````",
"````````````````````````````````````````````````````````````````````````",
"````````````````````````````````````````````````````````````````````````",
"````````````````````````````````````````````````````````````````````````",
"````````````````````````````````````````````````````````````````````````",
"````````````````````````````````````````````````````````````````````````",
"````````````````````````````````````````````````````````````````````````",
"````````````````````````````````````````````````````````````````````````",
"````````````````````````````````````````````````````````````````````````",
"````````````````````````````````````````````````````````````````````````",
"````````````````````````````````````````````````````````````````````````",
"````````````````````````````````````````````````````````````````````````",
"````````````````````````````````````````````````````````````````````````",
"````````````````````````````````````````````````````````````````````````",
"````````````````````````````````````````````````````````````````````````",
"````````````````````````````````````````````````````````````````````````",
"````````````````````````````````````````````````````````````````````````",
"````````````````````````````````````````````````````````````````````````",
"````````````````````````````````````````````````````````````````````````",
"````````````````````````````````````````````````````````````````````````",
"````````````````````````````````````````````````````````````````````````",
"````````````````````````````````````````````````````````````````````````",
"````````````````````````````````````````````````````````````````````````",
"````````````````````````````````````````````````````````````````````````",
"````````````````````````````````````````````````````````````````````````",
"````````````````````````````````````````````````````````````````````````",
"````````````````````````````````````````````````````````````````````````",
"````````````````````````````````````````````````````````````````````````",
"````````````````````````````````````````````````````````````````````````",
"````````````````````````````````````````````````````````````````````````",
"````````````````````````````````````````````````````````````````````````",
"````````````````````````````````````````````````````````````````````````",
"````````````````````````````````````````````````````````````````````````",
"````````````````````````````````````````````````````````````````````````",
"````````````````````````````````````````````````````````````````````````",
"````````````````````````````````````````````````````````````````````````",
"````````````````````````````````````````````````````````````````````````",
"````````````````````````````````````````````````````````````````````````",
"````````````````````````````````````````````````````````````````````````",
"````````````````````````````````````````````````````````````````````````",
"````````````````````````````````````````````````````````````````````````",
"````````````````````````````````````````````````````````````````````````",
"````````````````````````````````````````````````````````````````````````",
"````````````````````````````````````````````````````````````````````````",
"````````````````````````````````````````````````````````````````````````",
"````````````````````````````````````````````````````````````````````````",
"````````````````````````````````````````````````````````````````````````",
"````````````````````````````````````````````````````````````````````````",
"````````````````````````````````````````````````````````````````````````",
"````````````````````````````````````````````````````````````````````````",
"````````````````````````````````````````````````````````````````````````",
"````````````````````````````````````````````````````````````````````````",
"````````````````````````````````````````````````````````````````````````",
"````````````````````````````````````````````````````````````````````````",
"````````````````````````````````````````````````````````````````````````",
"````````````````````````````````````````````````````````````````````````",
"`````````````````````````````````````````````````````````.`#`a`b````````",
"`````````````````````````````````````````````````````````c`d`d`e`f``````",
"```````````````````````````````````````````````````g`h`e`i`i`j`k`l``````",
"```````````````````````````````````m`n`o`g`````p`c`q`i`d`r`s`t`f````````",
"`````````````````````````````````u`v`d`d`q`w`x`d`i`y`z`A`B`C`D`E`F`G````",
"`````````````````````````````````H`w`s`y`d`i`i`q`e`I`n`J`z`i`d`d`d`K````",
"```````````````````````````````````g`L`a`#`e`M`N`O`P`s`d`d`d`d`d`i`Q`R``",
"```````````````````````````````````````````S`l`T`D`d`d`d`d`i`y`d`U`V`W``",
"`````````````````````````````````````````````o`d`d`d`d`i`q`X`X`d`z`Y`.``",
"`````````````````````````````````````````````Z`d`d`d`q`0`1`o`2`N`3`4````",
"```````````````````````````````````````````g`y`d`i`j`5`o````````````````",
"```````````````````````````````````````````g`y`d`i`D`f``````````````````",
"`````````````````````````````````````````````r`d`r`6`7``````````````````",
"`````````````````````````````````````````````n`w`h`8````````````````````",
"`````````````````````````````````````````````S.`````````````````````````",
"````````````````````````````````````````````````````````````````````````"
};
