/* XPM */
static const char *Ccolon_xpm[] = {
/* width height num_colors chars_per_pixel */
"     8    35      256            2",
/* colors */
"`` c #ffffff",
"`. c #9c9d9c",
"`# c #313031",
"`a c #000000",
"`b c #202020",
"`c c #7b7d7b",
"`d c #a4a1a4",
"`e c #4a4c4a",
"`f c #414041",
"`g c #acaaac",
"`h c #626162",
"`i c #080c08",
"`j c #626562",
"`k c #e6e2e6",
"`l c #101410",
"`m c #000400",
"`n c #414441",
"`o c #7b797b",
"`p c #eeeeee",
"`q c #393839",
"`r c #d5d2d5",
"`s c #f6f6f6",
"`t c #c5c6c5",
"`u c #b4b2b4",
"`v c #bdbebd",
"`w c #dedede",
"`x c #cdcecd",
"`y c #101010",
"`z c #949194",
"`A c #525052",
"`B c #292c29",
"`C c #181818",
"`D c #dedade",
"`E c #949594",
"`F c #838183",
"`G c #8b8d8b",
"`H c #000000",
"`I c #000000",
"`J c #000000",
"`K c #000000",
"`L c #000000",
"`M c #000000",
"`N c #000000",
"`O c #000000",
"`P c #000000",
"`Q c #000000",
"`R c #000000",
"`S c #000000",
"`T c #000000",
"`U c #000000",
"`V c #000000",
"`W c #000000",
"`X c #000000",
"`Y c #000000",
"`Z c #000000",
"`0 c #000000",
"`1 c #000000",
"`2 c #000000",
"`3 c #000000",
"`4 c #000000",
"`5 c #000000",
"`6 c #000000",
"`7 c #000000",
"`8 c #000000",
".` c #000000",
".. c #000000",
".# c #000000",
".a c #000000",
".b c #000000",
".c c #000000",
".d c #000000",
".e c #000000",
".f c #000000",
".g c #000000",
".h c #000000",
".i c #000000",
".j c #000000",
".k c #000000",
".l c #000000",
".m c #000000",
".n c #000000",
".o c #000000",
".p c #000000",
".q c #000000",
".r c #000000",
".s c #000000",
".t c #000000",
".u c #000000",
".v c #000000",
".w c #000000",
".x c #000000",
".y c #000000",
".z c #000000",
".A c #000000",
".B c #000000",
".C c #000000",
".D c #000000",
".E c #000000",
".F c #000000",
".G c #000000",
".H c #000000",
".I c #000000",
".J c #000000",
".K c #000000",
".L c #000000",
".M c #000000",
".N c #000000",
".O c #000000",
".P c #000000",
".Q c #000000",
".R c #000000",
".S c #000000",
".T c #000000",
".U c #000000",
".V c #000000",
".W c #000000",
".X c #000000",
".Y c #000000",
".Z c #000000",
".0 c #000000",
".1 c #000000",
".2 c #000000",
".3 c #000000",
".4 c #000000",
".5 c #000000",
".6 c #000000",
".7 c #000000",
".8 c #000000",
"#` c #000000",
"#. c #000000",
"## c #000000",
"#a c #000000",
"#b c #000000",
"#c c #000000",
"#d c #000000",
"#e c #000000",
"#f c #000000",
"#g c #000000",
"#h c #000000",
"#i c #000000",
"#j c #000000",
"#k c #000000",
"#l c #000000",
"#m c #000000",
"#n c #000000",
"#o c #000000",
"#p c #000000",
"#q c #000000",
"#r c #000000",
"#s c #000000",
"#t c #000000",
"#u c #000000",
"#v c #000000",
"#w c #000000",
"#x c #000000",
"#y c #000000",
"#z c #000000",
"#A c #000000",
"#B c #000000",
"#C c #000000",
"#D c #000000",
"#E c #000000",
"#F c #000000",
"#G c #000000",
"#H c #000000",
"#I c #000000",
"#J c #000000",
"#K c #000000",
"#L c #000000",
"#M c #000000",
"#N c #000000",
"#O c #000000",
"#P c #000000",
"#Q c #000000",
"#R c #000000",
"#S c #000000",
"#T c #000000",
"#U c #000000",
"#V c #000000",
"#W c #000000",
"#X c #000000",
"#Y c #000000",
"#Z c #000000",
"#0 c #000000",
"#1 c #000000",
"#2 c #000000",
"#3 c #000000",
"#4 c #000000",
"#5 c #000000",
"#6 c #000000",
"#7 c #000000",
"#8 c #000000",
"a` c #000000",
"a. c #000000",
"a# c #000000",
"aa c #000000",
"ab c #000000",
"ac c #000000",
"ad c #000000",
"ae c #000000",
"af c #000000",
"ag c #000000",
"ah c #000000",
"ai c #000000",
"aj c #000000",
"ak c #000000",
"al c #000000",
"am c #000000",
"an c #000000",
"ao c #000000",
"ap c #000000",
"aq c #000000",
"ar c #000000",
"as c #000000",
"at c #000000",
"au c #000000",
"av c #000000",
"aw c #000000",
"ax c #000000",
"ay c #000000",
"az c #000000",
"aA c #000000",
"aB c #000000",
"aC c #000000",
"aD c #000000",
"aE c #000000",
"aF c #000000",
"aG c #000000",
"aH c #000000",
"aI c #000000",
"aJ c #000000",
"aK c #000000",
"aL c #000000",
"aM c #000000",
"aN c #000000",
"aO c #000000",
"aP c #000000",
"aQ c #000000",
"aR c #000000",
"aS c #000000",
"aT c #000000",
"aU c #000000",
"aV c #000000",
"aW c #000000",
"aX c #000000",
"aY c #000000",
"aZ c #000000",
"a0 c #000000",
"a1 c #000000",
"a2 c #000000",
"a3 c #000000",
"a4 c #000000",
"a5 c #000000",
"a6 c #000000",
"a7 c #000000",
"a8 c #000000",
/* pixels */
"````````````````",
"````````````````",
"````````````````",
"````````````````",
"````````````````",
"````````````````",
"````````````````",
"````````````````",
"````````````````",
"````````````````",
"````````````````",
"````````````````",
"````````````````",
"````````````````",
"````````````````",
"````````````````",
"````````````````",
"````````````````",
"````````````````",
"```.`#`a`b`c````",
"`d`a`a`a`a`a`e``",
"`f`a`a`a`a`a`a`g",
"`h`a`a`a`a`a`i`j",
"`k`l`a`a`a`m`n`o",
"```p`n`#`q`h`j`r",
"`````s`t`u`v`s``",
"````````````````",
"````````````````",
"```w`c`e`c`w````",
"`x`y`a`a`a`a`z``",
"`A`a`a`a`a`a`i`t",
"`A`a`a`a`a`a`m`o",
"`u`a`a`a`a`a`B`j",
"```.`b`C`C`f`j`g",
"`````D`E`F`G`t``"
};
