/* XPM */
static const char *Lock_xpm[] = {
/* width height num_colors chars_per_pixel */
"    53    23      256            2",
/* colors */
"`` c #ffffff",
"`. c #e6e6e6",
"`# c #5a595a",
"`a c #7b7d7b",
"`b c #e6e2e6",
"`c c #393839",
"`d c #101010",
"`e c #101410",
"`f c #080c08",
"`g c #bdbabd",
"`h c #acaaac",
"`i c #181c18",
"`j c #202420",
"`k c #41484a",
"`l c #4a484a",
"`m c #4a4c52",
"`n c #838183",
"`o c #eeeaee",
"`p c #c5c6c5",
"`q c #293031",
"`r c #c5c2c5",
"`s c #cdcecd",
"`t c #d5d6d5",
"`u c #737573",
"`v c #525552",
"`w c #949194",
"`x c #949594",
"`y c #525052",
"`z c #202829",
"`A c #292c29",
"`B c #f6f2f6",
"`C c #838583",
"`D c #313431",
"`E c #202429",
"`F c #eeeeee",
"`G c #626162",
"`H c #626562",
"`I c #7b797b",
"`J c #181818",
"`K c #414441",
"`L c #292829",
"`M c #100c08",
"`N c #4a4c4a",
"`O c #393c39",
"`P c #a4a5a4",
"`Q c #393c41",
"`R c #f6f6f6",
"`S c #5a5d5a",
"`T c #313031",
"`U c #41444a",
"`V c #101418",
"`W c #a4a1a4",
"`X c #acaeac",
"`Y c #202020",
"`Z c #4a5052",
"`0 c #080808",
"`1 c #fffaff",
"`2 c #b4b6b4",
"`3 c #d5d2d5",
"`4 c #000000",
"`5 c #000000",
"`6 c #000000",
"`7 c #000000",
"`8 c #000000",
".` c #000000",
".. c #000000",
".# c #000000",
".a c #000000",
".b c #000000",
".c c #000000",
".d c #000000",
".e c #000000",
".f c #000000",
".g c #000000",
".h c #000000",
".i c #000000",
".j c #000000",
".k c #000000",
".l c #000000",
".m c #000000",
".n c #000000",
".o c #000000",
".p c #000000",
".q c #000000",
".r c #000000",
".s c #000000",
".t c #000000",
".u c #000000",
".v c #000000",
".w c #000000",
".x c #000000",
".y c #000000",
".z c #000000",
".A c #000000",
".B c #000000",
".C c #000000",
".D c #000000",
".E c #000000",
".F c #000000",
".G c #000000",
".H c #000000",
".I c #000000",
".J c #000000",
".K c #000000",
".L c #000000",
".M c #000000",
".N c #000000",
".O c #000000",
".P c #000000",
".Q c #000000",
".R c #000000",
".S c #000000",
".T c #000000",
".U c #000000",
".V c #000000",
".W c #000000",
".X c #000000",
".Y c #000000",
".Z c #000000",
".0 c #000000",
".1 c #000000",
".2 c #000000",
".3 c #000000",
".4 c #000000",
".5 c #000000",
".6 c #000000",
".7 c #000000",
".8 c #000000",
"#` c #000000",
"#. c #000000",
"## c #000000",
"#a c #000000",
"#b c #000000",
"#c c #000000",
"#d c #000000",
"#e c #000000",
"#f c #000000",
"#g c #000000",
"#h c #000000",
"#i c #000000",
"#j c #000000",
"#k c #000000",
"#l c #000000",
"#m c #000000",
"#n c #000000",
"#o c #000000",
"#p c #000000",
"#q c #000000",
"#r c #000000",
"#s c #000000",
"#t c #000000",
"#u c #000000",
"#v c #000000",
"#w c #000000",
"#x c #000000",
"#y c #000000",
"#z c #000000",
"#A c #000000",
"#B c #000000",
"#C c #000000",
"#D c #000000",
"#E c #000000",
"#F c #000000",
"#G c #000000",
"#H c #000000",
"#I c #000000",
"#J c #000000",
"#K c #000000",
"#L c #000000",
"#M c #000000",
"#N c #000000",
"#O c #000000",
"#P c #000000",
"#Q c #000000",
"#R c #000000",
"#S c #000000",
"#T c #000000",
"#U c #000000",
"#V c #000000",
"#W c #000000",
"#X c #000000",
"#Y c #000000",
"#Z c #000000",
"#0 c #000000",
"#1 c #000000",
"#2 c #000000",
"#3 c #000000",
"#4 c #000000",
"#5 c #000000",
"#6 c #000000",
"#7 c #000000",
"#8 c #000000",
"a` c #000000",
"a. c #000000",
"a# c #000000",
"aa c #000000",
"ab c #000000",
"ac c #000000",
"ad c #000000",
"ae c #000000",
"af c #000000",
"ag c #000000",
"ah c #000000",
"ai c #000000",
"aj c #000000",
"ak c #000000",
"al c #000000",
"am c #000000",
"an c #000000",
"ao c #000000",
"ap c #000000",
"aq c #000000",
"ar c #000000",
"as c #000000",
"at c #000000",
"au c #000000",
"av c #000000",
"aw c #000000",
"ax c #000000",
"ay c #000000",
"az c #000000",
"aA c #000000",
"aB c #000000",
"aC c #000000",
"aD c #000000",
"aE c #000000",
"aF c #000000",
"aG c #000000",
"aH c #000000",
"aI c #000000",
"aJ c #000000",
"aK c #000000",
"aL c #000000",
"aM c #000000",
"aN c #000000",
"aO c #000000",
"aP c #000000",
"aQ c #000000",
"aR c #000000",
"aS c #000000",
"aT c #000000",
"aU c #000000",
"aV c #000000",
"aW c #000000",
"aX c #000000",
"aY c #000000",
"aZ c #000000",
"a0 c #000000",
"a1 c #000000",
"a2 c #000000",
"a3 c #000000",
"a4 c #000000",
"a5 c #000000",
"a6 c #000000",
"a7 c #000000",
"a8 c #000000",
/* pixels */
"``````````````````````````````````````````````````````````````````````````````````````````````````````````",
"``````````````````````````````````````````````````````````````````````````````````````````````````````````",
"`````````````````````````````````````````````````````````````````````````````.`#`a````````````````````````",
"```````````````````````````````````````````````````````````````````````````b`c`d`e`a``````````````````````",
"```````````````````````````````````````````````````````````````````````````c`d`d`f`d`g````````````````````",
"`````````````````````````````````````````````````````````````````````````h`d`f`i`j`f`k````````````````````",
"`````````````````````````````````````````````````````````````````````````l`d`e`m`n`f`j`o``````````````````",
"```````````````````````````````````````````````````````````````````````p`i`f`q`r`s`f`j`t``````````````````",
"```````````````````````````````````````````````````````````````````````u`d`d`v```w`f`j`t``````````````````",
"```````````````````````````````````````````````````````````````````````c`d`i`x```y`f`z`o``````````````````",
"```````````````````````````````````````````````````````````````````````A`f`j`s`B`e`d`d`C``````````````````",
"```````````````````````````````````````````````````````````````````````D`f`E`F`G`d`d`d`d`H````````````````",
"```````````````````````````````````````````````````````````````````````I`d`J`l`d`d`e`d`d`d`K`o````````````",
"```````````````````````````````````````````````````````````````````````.`L`d`d`M`e`N`O`d`d`d`A`t``````````",
"`````````````````````````````````````````````````````````````````````````P`d`f`d`Q`g`R`S`d`d`d`i`g````````",
"```````````````````````````````````````````````````````````````````````````n`T`U`P```````C`V`d`d`d`W``````",
"`````````````````````````````````````````````````````````````````````````````b`o```````````X`j`d`d`Y`g````",
"`````````````````````````````````````````````````````````````````````````````````````````````Z`d`0`T`X````",
"```````````````````````````````````````````````````````````````````````````````````````````b`d`e`A`v`1````",
"```````````````````````````````````````````````````````````````````````````````````````````t`e`j`W`s``````",
"`````````````````````````````````````````````````````````````````````````````````````````````2`m`.````````",
"```````````````````````````````````````````````````````````````````````````````````````````````3`R````````",
"``````````````````````````````````````````````````````````````````````````````````````````````````````````"
};
