/* XPM */
static const char *Mail_xpm[] = {
/* width height num_colors chars_per_pixel */
"    25    40      256            2",
/* colors */
"`` c #ffffff",
"`. c #bdbabd",
"`# c #626562",
"`a c #f6f6f6",
"`b c #414041",
"`c c #101010",
"`d c #414441",
"`e c #5a595a",
"`f c #dedede",
"`g c #4a484a",
"`h c #181818",
"`i c #8b898b",
"`j c #fffaff",
"`k c #cdcecd",
"`l c #202420",
"`m c #181c20",
"`n c #080c08",
"`o c #313431",
"`p c #b4b6b4",
"`q c #5a5d5a",
"`r c #101410",
"`s c #202020",
"`t c #292c29",
"`u c #b4b6bd",
"`v c #4a4c52",
"`w c #101818",
"`x c #dedade",
"`y c #292829",
"`z c #a4a1a4",
"`A c #293031",
"`B c #838583",
"`C c #737573",
"`D c #100c08",
"`E c #394041",
"`F c #eeeaee",
"`G c #4a4c4a",
"`H c #eeeeee",
"`I c #838183",
"`J c #313031",
"`K c #c5c6c5",
"`L c #181c18",
"`M c #7b8183",
"`N c #8b8d8b",
"`O c #e6e2e6",
"`P c #d5d6d5",
"`Q c #5a6162",
"`R c #d5d2d5",
"`S c #313839",
"`T c #e6e6e6",
"`U c #202429",
"`V c #6a6d73",
"`W c #6a6d6a",
"`X c #a4a5a4",
"`Y c #c5c2c5",
"`Z c #525552",
"`0 c #737173",
"`1 c #7b7d83",
"`2 c #393839",
"`3 c #c5cacd",
"`4 c #bdbebd",
"`5 c #acaaac",
"`6 c #4a5052",
"`7 c #9c999c",
"`8 c #9c9da4",
".` c #7b7d7b",
".. c #eeeef6",
".# c #f6f2f6",
".a c #393c39",
".b c #080808",
".c c #202829",
".d c #9c9d9c",
".e c #5a5d62",
".f c #cdcacd",
".g c #626162",
".h c #949194",
".i c #949594",
".j c #f6faff",
".k c #41444a",
".l c #bdbec5",
".m c #000000",
".n c #000000",
".o c #000000",
".p c #000000",
".q c #000000",
".r c #000000",
".s c #000000",
".t c #000000",
".u c #000000",
".v c #000000",
".w c #000000",
".x c #000000",
".y c #000000",
".z c #000000",
".A c #000000",
".B c #000000",
".C c #000000",
".D c #000000",
".E c #000000",
".F c #000000",
".G c #000000",
".H c #000000",
".I c #000000",
".J c #000000",
".K c #000000",
".L c #000000",
".M c #000000",
".N c #000000",
".O c #000000",
".P c #000000",
".Q c #000000",
".R c #000000",
".S c #000000",
".T c #000000",
".U c #000000",
".V c #000000",
".W c #000000",
".X c #000000",
".Y c #000000",
".Z c #000000",
".0 c #000000",
".1 c #000000",
".2 c #000000",
".3 c #000000",
".4 c #000000",
".5 c #000000",
".6 c #000000",
".7 c #000000",
".8 c #000000",
"#` c #000000",
"#. c #000000",
"## c #000000",
"#a c #000000",
"#b c #000000",
"#c c #000000",
"#d c #000000",
"#e c #000000",
"#f c #000000",
"#g c #000000",
"#h c #000000",
"#i c #000000",
"#j c #000000",
"#k c #000000",
"#l c #000000",
"#m c #000000",
"#n c #000000",
"#o c #000000",
"#p c #000000",
"#q c #000000",
"#r c #000000",
"#s c #000000",
"#t c #000000",
"#u c #000000",
"#v c #000000",
"#w c #000000",
"#x c #000000",
"#y c #000000",
"#z c #000000",
"#A c #000000",
"#B c #000000",
"#C c #000000",
"#D c #000000",
"#E c #000000",
"#F c #000000",
"#G c #000000",
"#H c #000000",
"#I c #000000",
"#J c #000000",
"#K c #000000",
"#L c #000000",
"#M c #000000",
"#N c #000000",
"#O c #000000",
"#P c #000000",
"#Q c #000000",
"#R c #000000",
"#S c #000000",
"#T c #000000",
"#U c #000000",
"#V c #000000",
"#W c #000000",
"#X c #000000",
"#Y c #000000",
"#Z c #000000",
"#0 c #000000",
"#1 c #000000",
"#2 c #000000",
"#3 c #000000",
"#4 c #000000",
"#5 c #000000",
"#6 c #000000",
"#7 c #000000",
"#8 c #000000",
"a` c #000000",
"a. c #000000",
"a# c #000000",
"aa c #000000",
"ab c #000000",
"ac c #000000",
"ad c #000000",
"ae c #000000",
"af c #000000",
"ag c #000000",
"ah c #000000",
"ai c #000000",
"aj c #000000",
"ak c #000000",
"al c #000000",
"am c #000000",
"an c #000000",
"ao c #000000",
"ap c #000000",
"aq c #000000",
"ar c #000000",
"as c #000000",
"at c #000000",
"au c #000000",
"av c #000000",
"aw c #000000",
"ax c #000000",
"ay c #000000",
"az c #000000",
"aA c #000000",
"aB c #000000",
"aC c #000000",
"aD c #000000",
"aE c #000000",
"aF c #000000",
"aG c #000000",
"aH c #000000",
"aI c #000000",
"aJ c #000000",
"aK c #000000",
"aL c #000000",
"aM c #000000",
"aN c #000000",
"aO c #000000",
"aP c #000000",
"aQ c #000000",
"aR c #000000",
"aS c #000000",
"aT c #000000",
"aU c #000000",
"aV c #000000",
"aW c #000000",
"aX c #000000",
"aY c #000000",
"aZ c #000000",
"a0 c #000000",
"a1 c #000000",
"a2 c #000000",
"a3 c #000000",
"a4 c #000000",
"a5 c #000000",
"a6 c #000000",
"a7 c #000000",
"a8 c #000000",
/* pixels */
"``````````````````````````````````````````````````",
"``````````````````````````````````````````````````",
"``````````````````````````````````````````````````",
"``````````````````````````````````````````````````",
"``````````````````````````````````````````````````",
"``````````````````````````````````````````````````",
"``````````````````````````````````````````````````",
"``````````````````````````````````````````````````",
"``````````````````````````````````````````````````",
"``````````````````````````````````````````````````",
"``````````````````````````````````````````````````",
"``````````````````````````````````````````````````",
"```````````````````.`#`a``````````````````````````",
"```````````````````b`c`d`.````````````````````````",
"`````````````````.`c`c`c`c`e`f````````````````````",
"`````````````````g`c`c`c`c`c`h`i`j````````````````",
"```````````````k`c`c`c`c`l`m`n`c`o`p``````````````",
"```````````````q`c`r`s`n`t`u`v`w`n`c`e`x``````````",
"`````````````f`r`n`y`#`r`r`p```z`A`c`n`h`B`a``````",
"`````````````C`c`D`E`F`b`c`G`````H`I`s`c`c`J`K````",
"```````````H`L`n`s`M```N`c`h`O```````P`Q`h`c`y`R``",
"```````````N`c`n`S`P```T`r`c`N```````````#`n`U`V``",
"`````````j`y`c`h`W`````K`r`D`v`````````a`l`n`b`k``",
"`````````X`c`n`o`Y`````Z`c`L`0`````````z`c`L`1````",
"`````````2`c`r`e`````f`c`n`o`3`````````b`n`J`3````",
"```````4`c`n`t`5`````C`c`r`e`````````R`c`r`6`j````",
"```````G`c`c`g`````F`L`n`t`5`````````W`n`U`7``````",
"`````P`c`n`t`8`P.``t`c`c`d..``````.#`L`n.a`T``````",
"`````W`c`c`U`o`c`c`n.b.c`N````````.d`c`L`C````````",
"```k`s`c`c`n`n`n`c`l`S.e`O````````.a`n`J`Y````````",
"```l`c`c`c`c`L`o`G`I`K`j````````.f`c`r`6`j````````",
"``.g`c`n`c`c`L`q`f```````````````#`n`l`7``````````",
"````.h`y`r`n`n`D`J`i`T`````````F`h`n`2`O``````````",
"```````O.h.a`L`c`n`c`L`W`k````.i`c`L`C````````````",
"``````````.j`p`q`l`r`n`c`c`Z`p`2`n`A`Y````````````",
"`````````````````P.``t`h`n`D`c`c`c`6`j````````````",
"`````````````````````F`8.k`m`c.b`l`7``````````````",
"```````````````````````````K`V`J`G`T``````````````",
"``````````````````````````````.l`p````````````````",
"``````````````````````````````````````````````````"
};
