/* XPM */
static const char *pm_xpm[] = {
/* width height num_colors chars_per_pixel */
"    51    48      256            2",
/* colors */
"`` c #ffffff",
"`. c #c5c2c5",
"`# c #202420",
"`a c #000000",
"`b c #393c39",
"`c c #eeeeee",
"`d c #101010",
"`e c #7b7d7b",
"`f c #d5d6d5",
"`g c #f6f6f6",
"`h c #000400",
"`i c #626562",
"`j c #626162",
"`k c #525552",
"`l c #4a4c4a",
"`m c #737173",
"`n c #e6e6e6",
"`o c #6a696a",
"`p c #acaaac",
"`q c #bdbebd",
"`r c #b4b2b4",
"`s c #000000",
"`t c #000000",
"`u c #000000",
"`v c #000000",
"`w c #000000",
"`x c #000000",
"`y c #000000",
"`z c #000000",
"`A c #000000",
"`B c #000000",
"`C c #000000",
"`D c #000000",
"`E c #000000",
"`F c #000000",
"`G c #000000",
"`H c #000000",
"`I c #000000",
"`J c #000000",
"`K c #000000",
"`L c #000000",
"`M c #000000",
"`N c #000000",
"`O c #000000",
"`P c #000000",
"`Q c #000000",
"`R c #000000",
"`S c #000000",
"`T c #000000",
"`U c #000000",
"`V c #000000",
"`W c #000000",
"`X c #000000",
"`Y c #000000",
"`Z c #000000",
"`0 c #000000",
"`1 c #000000",
"`2 c #000000",
"`3 c #000000",
"`4 c #000000",
"`5 c #000000",
"`6 c #000000",
"`7 c #000000",
"`8 c #000000",
".` c #000000",
".. c #000000",
".# c #000000",
".a c #000000",
".b c #000000",
".c c #000000",
".d c #000000",
".e c #000000",
".f c #000000",
".g c #000000",
".h c #000000",
".i c #000000",
".j c #000000",
".k c #000000",
".l c #000000",
".m c #000000",
".n c #000000",
".o c #000000",
".p c #000000",
".q c #000000",
".r c #000000",
".s c #000000",
".t c #000000",
".u c #000000",
".v c #000000",
".w c #000000",
".x c #000000",
".y c #000000",
".z c #000000",
".A c #000000",
".B c #000000",
".C c #000000",
".D c #000000",
".E c #000000",
".F c #000000",
".G c #000000",
".H c #000000",
".I c #000000",
".J c #000000",
".K c #000000",
".L c #000000",
".M c #000000",
".N c #000000",
".O c #000000",
".P c #000000",
".Q c #000000",
".R c #000000",
".S c #000000",
".T c #000000",
".U c #000000",
".V c #000000",
".W c #000000",
".X c #000000",
".Y c #000000",
".Z c #000000",
".0 c #000000",
".1 c #000000",
".2 c #000000",
".3 c #000000",
".4 c #000000",
".5 c #000000",
".6 c #000000",
".7 c #000000",
".8 c #000000",
"#` c #000000",
"#. c #000000",
"## c #000000",
"#a c #000000",
"#b c #000000",
"#c c #000000",
"#d c #000000",
"#e c #000000",
"#f c #000000",
"#g c #000000",
"#h c #000000",
"#i c #000000",
"#j c #000000",
"#k c #000000",
"#l c #000000",
"#m c #000000",
"#n c #000000",
"#o c #000000",
"#p c #000000",
"#q c #000000",
"#r c #000000",
"#s c #000000",
"#t c #000000",
"#u c #000000",
"#v c #000000",
"#w c #000000",
"#x c #000000",
"#y c #000000",
"#z c #000000",
"#A c #000000",
"#B c #000000",
"#C c #000000",
"#D c #000000",
"#E c #000000",
"#F c #000000",
"#G c #000000",
"#H c #000000",
"#I c #000000",
"#J c #000000",
"#K c #000000",
"#L c #000000",
"#M c #000000",
"#N c #000000",
"#O c #000000",
"#P c #000000",
"#Q c #000000",
"#R c #000000",
"#S c #000000",
"#T c #000000",
"#U c #000000",
"#V c #000000",
"#W c #000000",
"#X c #000000",
"#Y c #000000",
"#Z c #000000",
"#0 c #000000",
"#1 c #000000",
"#2 c #000000",
"#3 c #000000",
"#4 c #000000",
"#5 c #000000",
"#6 c #000000",
"#7 c #000000",
"#8 c #000000",
"a` c #000000",
"a. c #000000",
"a# c #000000",
"aa c #000000",
"ab c #000000",
"ac c #000000",
"ad c #000000",
"ae c #000000",
"af c #000000",
"ag c #000000",
"ah c #000000",
"ai c #000000",
"aj c #000000",
"ak c #000000",
"al c #000000",
"am c #000000",
"an c #000000",
"ao c #000000",
"ap c #000000",
"aq c #000000",
"ar c #000000",
"as c #000000",
"at c #000000",
"au c #000000",
"av c #000000",
"aw c #000000",
"ax c #000000",
"ay c #000000",
"az c #000000",
"aA c #000000",
"aB c #000000",
"aC c #000000",
"aD c #000000",
"aE c #000000",
"aF c #000000",
"aG c #000000",
"aH c #000000",
"aI c #000000",
"aJ c #000000",
"aK c #000000",
"aL c #000000",
"aM c #000000",
"aN c #000000",
"aO c #000000",
"aP c #000000",
"aQ c #000000",
"aR c #000000",
"aS c #000000",
"aT c #000000",
"aU c #000000",
"aV c #000000",
"aW c #000000",
"aX c #000000",
"aY c #000000",
"aZ c #000000",
"a0 c #000000",
"a1 c #000000",
"a2 c #000000",
"a3 c #000000",
"a4 c #000000",
"a5 c #000000",
"a6 c #000000",
"a7 c #000000",
"a8 c #000000",
/* pixels */
"``````````````````````````````````````````````````````````````````````````````````````````````````````",
"``````````````````````````````````````````````````````````````````````````````````````````````````````",
"``````````````````````````````````````````````````````````````````````````````````````````````````````",
"``````````````````````````````````````````````````````````````````````````````````````````````````````",
"``````````````````````````````````````````````````````````````````````````````````````````````````````",
"``````````````````````````````````````````````````````````````````````````````````````````````````````",
"``````````````````````````````````````````````````````````````````````````````````````````````````````",
"``````````````````````````````````````````````````````````````````````````````````````````````````````",
"``````````````````````````````````````````````````````````````````````````````````````````````````````",
"``````````````````````````````````````````````````````````````````````````````````````````````````````",
"``````````````````````````````````````````````````````````````````````````````````````````````````````",
"``````````````````````````````````````````````````````````````````````````````````````````````````````",
"``````````````````````````````````````````````````````````````````````````````````````````````````````",
"``````````````````````````````````````````````````````````````````````````````````````````````````````",
"``````````````````````````````````````````````````````````````````````````````````````````````````````",
"``````````````````````````````````````````````````````````````````````````````````````````````````````",
"``````````````````````````````````````````````````````````````````````````````````````````````````````",
"``````````````````````````````````````````````````````````````````````````````````````````````````````",
"``````````````````````````````````````````````````````````````````````````````````````````````````````",
"``````````````````````````````````````````````````````````````````````````````````````````````````````",
"``````````````````````````````````````````````````````````````````````````````````````````````````````",
"``````````````````````````````````````````````````````````````````````````````````````````````````````",
"``````````````````````````````````````````````````````````````````````````````````````````````````````",
"``````````````````````````````````````````````````````````````````````````````````````````````````````",
"``````````````````````````````````````````````````````````````````````````````````````````````````````",
"``````````````````````````````````````````````````````````````````````````````````````````````````````",
"``````````````````````````````````````````````````````````````````````````````````````````````````````",
"``````````````````````````````````````````````````````````````````````````````````````````````````````",
"``````````````````````````````````````````````````````````````````````````````````````````````````````",
"``````````````````````````````````````````````````````````````````````````````````````````````````````",
"``````````````````````````````````````````````````````````````````````````````````````````````````````",
"``````````````````````````````````````````````````````````````````````````````````````````````````````",
"``````````````````````````````````````````````````````````````````````````````````````````````````````",
"``````````````````````````````````````````````````````````````````````````````````````````````````````",
"``````````````````````````````````````````````````````````````````````````````````````````````````````",
"``````````````````````````````````````````````````````````````````````````````````````````````````````",
"``````````````````````````````````````````````````````````````````````````````````````````````````````",
"`````````````````````````````````````````````````.`#`a`a`a`a`a`a`b`c`````.`d`a`a`a`d`e`e`d`a`a`a`b`c``",
"```````````````````````````````````````````````f`a`a`a`a`a`a`a`a`a`a`g`f`a`a`a`d`h`a`a`a`a`a`a`a`a`a`g",
"```````````````````````````````````````````````e`a`h`i`i`i`i`i`j`a`a`k`e`a`h`i`i`e`k`a`a`k`i`i`l`a`a`k",
"```````````````````````````````````````````````e`a`d`m```````````a`a`k`m`a`d`m`````f`a`a`i`n`````a`a`k",
"```````````````````````````````````````````````e`a`d`e```````````a`a`k`m`a`d`e`````f`a`a`i```````a`a`k",
"```````````````````````````````````````````````e`a`h`o`f`f`f`f`p`a`a`k`m`a`d`e`````f`a`a`i```````a`a`k",
"```````````````````````````````````````````````e`a`a`a`a`a`a`a`a`a`a`i`m`a`d`e`````f`a`a`i```````a`a`k",
"```````````````````````````````````````````````e`a`a`d`d`d`d`d`d`b`i`o`e`a`d`e`````f`a`a`i```````a`a`k",
"```````````````````````````````````````````````e`a`d`i`e`e`e`e`e`e`q`````r`i`e```````n`i`i`````````i`i",
"```````````````````````````````````````````````e`a`d`e````````````````````````````````````````````````",
"`````````````````````````````````````````````````r`i`e````````````````````````````````````````````````"
};
